<?xml version="1.0" standalone="no"?>
<!DOCTYPE svg PUBLIC "-//W3C//DTD SVG 1.1//EN" "http://www.w3.org/Graphics/SVG/1.1/DTD/svg11.dtd" >
<svg>
<metadata>
Created by FontForge 20090914 at Sun Sep 24 19:00:25 2017
 By www-data
Slava Meskhi, 1995
</metadata>
<defs>
<font id="GeoZaza" horiz-adv-x="2048" >
  <font-face 
    font-family="Geo Zaza"
    font-weight="400"
    font-stretch="normal"
    units-per-em="4096"
    panose-1="2 11 114 0 0 0 0 0 0 0"
    ascent="3276"
    descent="-820"
    x-height="1204"
    cap-height="1729"
    bbox="-4014.18 -3908 6300 4698"
    underline-thickness="50"
    underline-position="-75"
    unicode-range="U+0020-U+007E"
  />
<missing-glyph 
d="M256 0v4698h1536v-4698h-1536zM512 256h1024v4186h-1024v-4186z" />
    <glyph glyph-name=".notdef" 
d="M256 0v4698h1536v-4698h-1536zM512 256h1024v4186h-1024v-4186z" />
    <glyph glyph-name="space" unicode=" " 
 />
    <glyph glyph-name="exclam" unicode="!" horiz-adv-x="2253" 
d="M872 365c42 5.33301 66.666 8 73.999 8c26 0 41 -8.66699 45 -26c2 -8 3.33301 -13 4 -15c0 -102.667 -34 -179.334 -102 -230.001c-80 -60 -170 -90 -270 -90c-80 8 -139 56 -177 144c-10.667 24.667 -16 54.667 -16 90c0 108.667 73.667 178.334 221 209.001
c20.667 -4.66699 56.334 -22 107.001 -52c43.333 -25.333 81.333 -38 114 -38zM3322 4522c-53.333 -301.333 -195.334 -621 -426.001 -959l-885 -1257l-339 -519c-67.333 -104 -140 -223 -218 -357l-246 -439c-16.667 -37.333 -47.667 -89 -93 -155
c-20 -20 -45 -32.333 -75 -37c-46 28 -69 82.667 -69 164c18 130.667 75.333 313.334 172 548.001c154.667 283.333 318.334 545.666 491.001 786.999l324 458l308 419c193.333 262.667 373.333 547.667 540 855c44 81.334 88 175 132 281l96 231
c21.333 50 42.333 81.666 63 95c17.333 40.666 54 61 110 61c76.667 0 115 -58.666 115 -176z" />
    <glyph glyph-name="percent" unicode="%" horiz-adv-x="3482" 
d="M3531 3039l-2876 -3080h-217l2532 2716l-250 -74c-74 -22 -161.333 -33 -262 -33h-50l-106 25l-49 -115c-103.333 -242.667 -286.333 -499.334 -549 -770.001c-270 -278.667 -526.667 -418 -770 -418c-149.333 0 -251.666 57.333 -306.999 172
c-24.667 50.667 -37 106.667 -37 168c0 91.333 23 191 69 299c108 253.333 306 492.333 594 717c284 221.333 530 332 738 332c92.667 0 180 -42.333 262 -127c76.667 -79.333 183 -119 319 -119c138.667 0 280.834 31.5 426.5 94.5c145.667 63 271.167 133.833 376.5 212.5
h156zM3322 1176c-105.333 -247.333 -287 -499.999 -545 -757.999c-264.667 -265.333 -522.667 -398 -774 -398c-70 0 -130.167 13.667 -180.5 41s-93.833 84.666 -130.5 171.999c-19.333 33.333 -29 73 -29 119c0 77.333 24.667 173 74 287c104 240.667 291.333 476 562 706
c293.333 250 559.333 375 798 375c135.333 0 228 -46.333 278 -139c16.667 -31.333 25 -71 25 -119c0 -8 -1.33301 -24.333 -4 -49c-6 -57.333 -30.667 -136.333 -74 -237zM2126 2499c24.667 58.667 36.999 95.3359 36.999 110.002v12c0 10.667 -7.16699 20.5 -21.5 29.5
s-30.5 23.833 -48.5 44.5c-24.667 16.667 -38.334 29 -41 37c-8 5.33301 -14.667 12.333 -20 21c-11.333 5.33301 -21 9.33301 -29 12c-114.667 0 -294.667 -142 -540 -426c-218 -252.667 -360.333 -453.334 -427 -602.001c-24.667 -54.667 -37 -101.334 -37 -140.001
c0 -13.333 1.66699 -27 5 -41c16 -43.333 56.667 -65 122 -65c161.333 0 357 130.333 587 391c194.667 220.667 332.334 426.334 413.001 617zM3195 1159c18 40.667 30.333 84.334 37 131.001c2.66699 18 4 35.667 4 53c0 31.333 -1.33301 56 -4 74
c-7.33301 49.333 -47 74 -119 74c-137.333 0 -321.833 -138.333 -553.5 -415s-374.834 -478.334 -429.5 -605.001c-19.333 -44.667 -29 -87 -29 -127c0 -22 4.33301 -41 13 -57c16 -44 54 -66 114 -66c141.333 0 319 114.667 533 344c218 233.333 362.667 431.333 434 594z
" />
    <glyph glyph-name="ampersand" unicode="&#x26;" horiz-adv-x="4915" 
d="M2216 1139c134 0 248.667 -53.3301 344 -159.997c32.667 -48.667 49 -99.334 49 -152.001c0 -134 -107.667 -274.333 -323 -421c-308.667 -210.667 -505.334 -336.334 -590.001 -377.001c-12 -2 -35 -10 -69 -24c-29.333 -11.333 -53 -17 -71 -17
c-18.667 0 -28 10.667 -28 32c49.333 108.667 184 246.667 404 414c115.333 87.333 200.333 161 254.999 221c41.333 57.333 62 101 62 131c0 18.667 -4.33301 33.667 -13 45c-12.667 49.333 -64.334 74 -155.001 74c-141.333 0 -308 -61.333 -500 -184
c-80 -51.333 -136 -107.333 -168 -168c52 -18.667 78 -58.334 78 -119.001c0 -76.667 -79.333 -115 -238 -115c-11.333 -2 -38 -10.667 -80 -26c-36.667 -13.333 -61.667 -19.666 -75 -18.999c-49.333 2 -105 16.667 -167 44c-74.667 33.333 -112 70.666 -112 111.999
c0 26.667 22 51.334 66 74.001l118 42c88 32 132 83.333 132 154c-19.333 60 -63 99.667 -131 119c-264 0 -489.333 -104 -676 -312c-74 -82 -111 -144.667 -111 -188l25 -36c87.333 35.333 154 53 200 53c92 0 156.333 -28.667 193 -86
c10.667 -16.667 16 -37.334 16 -62.001c0 -50 -24.667 -95 -74 -135c-52 -42 -125.667 -63.667 -221 -65c-119.333 -2 -184.666 54 -195.999 168c-33.333 2 -67.333 16.833 -102 44.5s-56.667 57.834 -66 90.501c-5.33301 18 -8 30.333 -8 37
c0 73.333 32.667 119.666 98 138.999c42 119.333 127.667 233.333 257 342c134.667 112.667 263.334 189.667 386.001 231c100 33.333 198.333 50 295 50c178 0 305 -52 381 -156l33 -62v-8l20 -53c106.667 64.667 271.334 154 494.001 268c96.667 40 186 60 268 60z
M5997 3269c14.666 5.33301 31 8.00098 49 8.00098c30 0 45 -13.667 45 -41c0 -30 -13.666 -72.333 -41 -127c-129.334 -133.333 -802 -420.666 -2018 -862c-1200.67 -436.667 -2254 -784.334 -3160 -1043c-16 0 -24 5.66699 -24 17c0 26 13.167 57.833 39.5 95.5
s51.5 60.167 75.5 67.5c540.667 163.333 1456.33 499 2747 1007l1503 591c462.666 181.333 724 277 784 287zM3637 1212c18 -32.667 53.667 -49 107 -49c24 0 51.333 2.66699 82 8c46.667 8 92 26.333 136 55l298 240c222.666 206 422 402.667 598 590
c30 26.667 45 51.334 45 74c0 32.667 -39.666 49 -119 49c-62.666 -10.667 -118.666 -21.667 -168 -33c-332 -120 -580.667 -263.667 -746 -431c-96 -98 -173.667 -211 -233 -339c-10.667 -23.333 -16 -53.333 -16 -90c0 -30 5.33301 -54.667 16 -74zM3068 143.004
c0 83.333 42.333 181.668 127 295.001c56.667 76 105.334 136 146 180c52.667 57.333 110.334 116.333 173 177l197 192c-19.333 -2.66699 -49.333 -4 -90 -4c-100.667 0 -169 16.333 -205 49c-60 54.667 -90 129.667 -90 225c33.333 194 141.333 375.667 324 545
c96 89.333 187.333 164.666 274 225.999c171.333 121.333 339.333 212.666 504 274c219.334 82 426.667 123 622 123c183.334 0 275 -49.333 275 -148c0 -26 -8.33398 -53.333 -25 -82c-5.33398 -72.667 -195.667 -274 -571 -604c-332 -292 -498 -453.667 -498 -485
c0 -7.33301 2.66602 -11.333 8 -12c106.666 -54 171 -121 193 -201c10.666 -38.667 16 -79.667 16 -123c0 -178 -101.334 -343.667 -304 -497c-79.333 -60.667 -182.666 -121.667 -310 -183c-170 -82 -320.333 -123 -451 -123c-210 0 -315 58.667 -315 176zM3424 254.006
c46.667 -16.667 89 -24.9971 127 -24.9971c110 0 254.667 71 434 213c134 128 201 248.333 201 361c0 59.333 -32.666 94.666 -98 105.999c-11.333 8.66699 -26.333 13 -45 13c-84.667 0 -206.334 -75.333 -365 -226l-124 -126
c-105.333 -106.667 -158 -190.334 -158 -251.001c0 -24.667 9.33301 -46.334 28 -65.001z" />
    <glyph glyph-name="parenleft" unicode="(" horiz-adv-x="1638" 
d="M713 1757c4.66699 9.33301 13.999 25.667 27.999 49l29 45c252.667 392 625.334 745.667 1118 1061c218 139.333 438 257 660 353c210.667 90.667 410 167 598 229l-361 -238l-413 -270c-224.667 -152.667 -469.334 -338.334 -734.001 -557.001
c-220.667 -182 -428 -423.667 -622 -725c-110 -170.667 -200.333 -340 -271 -508c-67.333 -159.333 -106.666 -287.666 -117.999 -384.999c-27.333 -89.333 -41 -205.333 -41 -348c0 -82 5.33301 -161.333 16 -238c28.667 -208 69.667 -366.333 123 -475
c-46.667 8 -106.667 53 -180 135c-60 80.667 -109.333 158.667 -148 234c-46.667 90.667 -74 210.667 -82 360v41c0 358.667 132.667 771 398 1237z" />
    <glyph glyph-name="parenright" unicode=")" horiz-adv-x="2458" 
d="M2077 1397l-29.002 -49c-15.333 -17.333 -26.333 -31 -33 -41c-266 -378.667 -653.667 -716 -1163 -1012c-221.333 -128.667 -445.333 -236.667 -672 -324c-230 -88.667 -432 -156.667 -606 -204l369 221c203.333 118 345.333 202.667 426 254
c84.667 52.667 204.667 131.667 360 237c84.667 57.333 215.667 153 393 287c232.667 176 451.334 408 656.001 696c112.667 158.667 209.334 324 290.001 496c78.667 168 124 295 136 381c38 106.667 57 246 57 418c0 60 -2.66699 116 -8 168
c-21.333 208.667 -55.666 368.334 -103 479c46.667 -11.333 105.667 -59.333 177 -144c54.667 -83.333 99.667 -162.333 135 -237c43.333 -91.333 65 -213 65 -365c0 -152.667 -34 -335.667 -102 -549c-66 -206.667 -182 -444 -348 -712z" />
    <glyph glyph-name="plus" unicode="+" horiz-adv-x="2458" 
d="M602 1249c85.333 -0.666992 216.998 -9.00098 394.998 -25.001c174 -16 306 -24 396 -24c270 0 534.667 19 794 57c14 -48.667 21 -85.334 21 -110.001c0 -100.667 -93 -147 -279 -139c-96 -11.333 -224.333 -17 -385 -17c-183.333 0 -442.666 11 -777.999 33
c-41.333 2.66699 -75.333 4.33398 -102 5.00098c-61.333 0.666992 -125.666 7.33398 -192.999 20.001c-68 0 -102 28.667 -102 86c0 77.333 77.667 115.333 233 114zM1802 1593l-398 -513.001c-196.667 -269.333 -374 -559.666 -532 -870.999c-40.667 0 -75 22.667 -103 68
c-24 40 -36 81.333 -36 124c0 90 38.333 168 115 234c72 76.667 154.667 186.667 248 330l228 348c171.333 243.333 328 431 470 563c11.333 10.667 22.333 16 33 16c24.667 0 37 -28.667 37 -86c0 -84 -20.667 -155 -62 -213z" />
    <glyph glyph-name="comma" unicode="," horiz-adv-x="1229" 
d="M-94 -512c131.333 56 276.332 206.997 434.999 452.997c77.333 120.667 139.666 206.334 186.999 257.001c80.667 86.667 168.334 142.334 263.001 167.001c83.333 0 146 -18 188 -54c32.667 -28 49 -66 49 -114c0 -10.667 -2.66699 -32.667 -8 -66
c-54.667 -127.333 -152.667 -241.333 -294 -342c-86 -61.333 -220 -135.666 -402 -222.999c-139.333 -52 -278.666 -78 -417.999 -78z" />
    <glyph glyph-name="hyphen" unicode="-" horiz-adv-x="3072" 
d="M2429 868h-111c-555.333 0 -1074 -112 -1556 -336c-11.333 12 -17 25.667 -17 41c0 46.667 38 105 114 175c81.333 76 158.333 125.667 231 149c385.333 125.333 773 188 1163 188c140 0 272.333 -8 397 -24c24.667 -3.33301 37 -14.333 37 -33
c0 -26.667 -28.667 -58.667 -86 -96c-65.333 -42.667 -122.666 -64 -172 -64z" />
    <glyph glyph-name="hyphen" unicode="&#x2010;" horiz-adv-x="3072" 
d="M2429 868h-111c-555.333 0 -1074 -112 -1556 -336c-11.333 12 -17 25.667 -17 41c0 46.667 38 105 114 175c81.333 76 158.333 125.667 231 149c385.333 125.333 773 188 1163 188c140 0 272.333 -8 397 -24c24.667 -3.33301 37 -14.333 37 -33
c0 -26.667 -28.667 -58.667 -86 -96c-65.333 -42.667 -122.666 -64 -172 -64z" />
    <glyph glyph-name="period" unicode="." horiz-adv-x="1638" 
d="M733 401c19.333 6 44 8.99902 74 8.99902c32.667 0 51 -7.33301 55 -22c1.33301 -6.66699 3.33301 -14.334 6 -23.001c0 -54.667 -10.667 -104.167 -32 -148.5s-47.333 -78.166 -78 -101.499c-90 -68.667 -189.667 -103 -299 -103c-88 12.667 -152.333 66 -193 160
c-13.333 30.667 -20 63.334 -20 98.001c0 34 9.33301 69.667 28 107c30 60 102.667 101 218 123c20 -4.66699 58.333 -23.667 115 -57c48.667 -28 90.667 -42 126 -42z" />
    <glyph glyph-name="zero" unicode="0" horiz-adv-x="2867" 
d="M41 672c52 246 156.999 489.001 314.999 729.001c91.333 138.667 198.666 281.334 321.999 428.001c232 274.667 494.667 495.667 788 663c160.667 91.333 330 164.666 508 220c252.667 78.667 486.334 118 701 118c44 0 80.667 -1.33301 110 -4
c159.333 -14.667 269.333 -29.334 330 -44.001c120.667 -29.333 217 -80 289 -152c52 -67.333 78 -159 78 -275c0 -119.333 -24.667 -247.333 -74 -384c-44.667 -122 -98 -233 -160 -333c-259.333 -418 -557.666 -746.667 -894.999 -986
c-614 -434.667 -1208.67 -652 -1784 -652c-211.333 27.333 -362.666 95.666 -453.999 204.999c-63.333 62 -95 165.667 -95 311c0 38 7 90 21 156zM2531 2601c-354.667 -58.667 -665.997 -199.335 -933.997 -422.001l340 -16c-72 -66 -183.333 -160.667 -334 -284
c-50 -36.667 -107.333 -70 -172 -100c-70.667 -32.667 -140.667 -55 -210 -67c-47.333 -8 -115.666 -12 -204.999 -12c-224.667 -194 -410.334 -474 -557.001 -840c-38.667 -96 -58 -178 -58 -246c0 -125.333 49.667 -210.333 149 -255
c85.333 -38.667 163.666 -58 234.999 -58c11.333 0 22.666 0.666992 33.999 2c331.333 0 678.333 116 1041 348c434.667 278.667 806 629.667 1114 1053c102 140.667 178.333 274.334 229 401.001c14 67.333 21 118 21 152c0 242.667 -161.333 364 -484 364
c-58.667 0 -128.334 -6.66699 -209.001 -20z" />
    <glyph glyph-name="one" unicode="1" horiz-adv-x="1638" 
d="M16 147c0 27.333 9.66797 65.667 29.001 115l984 1002l896 940c-80.667 -16 -191.834 -77.333 -333.501 -184s-257.167 -160 -346.5 -160c-106.667 0 -160 34 -160 102c0 25.333 11 47.333 33 66l656 372l290 169c133.333 84 219.666 136.667 259 158
c100.667 56 193.334 96 278 120c40.667 0 61 -26 61 -78c0 -42 -12 -96.667 -36 -164l-2008 -2208l295 54l-315 -275c-134.667 -117.333 -267 -176 -397 -176c-123.333 18.667 -185 67.667 -185 147z" />
    <glyph glyph-name="two" unicode="2" horiz-adv-x="2867" 
d="M1937 2114c0 -123.333 -84.6641 -184.999 -253.997 -184.999c-132 30.667 -205.667 97.667 -221 201c1.33301 26.667 14 71.667 38 135c10.667 28.667 17.334 47.667 20.001 57c104 162.667 266.333 293.667 487 393c214.667 96 437.334 144 668 144
c130.667 0 246 -23 346 -69c159.333 -74 239 -194.333 239 -361c0 -68 -20.333 -133.667 -61 -197c-132.667 -208 -310.334 -383.333 -533 -526c-218.667 -141.333 -476.667 -270.333 -774 -387c-92 -36 -219 -91 -381 -165
c-286.667 -131.333 -528.334 -263.333 -725.001 -396c-116 -78 -214 -156 -294 -234c0 -78.667 77.667 -118 233 -118c140 0 420 42 840 126c65.333 14 163.666 34 294.999 60c96 17.333 186 26 270 26c231.333 0 385.666 -60 463 -180l-344 -319
c-137.333 57.333 -297.333 86 -480 86c-218 0 -495.333 -28 -832 -84l-495 -84c-32.667 -5.33301 -64 -8 -94 -8c-128.667 0 -224.334 35.333 -287.001 106c-21.333 33.333 -32 85.333 -32 156c0 77.333 19 148.333 57 213c146 190.667 358.667 365.667 638 525
c121.333 69.333 372.333 190.333 753 363c363.333 164.667 649.666 317.667 858.999 459c212 143.333 370 318.333 474 524.999c10.667 21.333 16 47.333 16 78c0 110 -84.667 161.667 -254 155c-312 -12 -542.667 -92.667 -692 -242c2.66699 -16.667 14 -58.334 34 -125
c15.333 -51.333 23 -94 23 -128z" />
    <glyph glyph-name="three" unicode="3" horiz-adv-x="2662" 
d="M283 557c32 -78 82.001 -141.668 150.001 -191.001c38 -28.667 86.333 -57.667 145 -87c80.667 -24 169.334 -35 266.001 -33c118 2.66699 246.333 22.667 385 60c128 34.667 248.667 83.334 362 146.001c106 58 205 132.667 297 224c99.333 98.667 173 186 221 262
c22 36.667 52 94 90 172c11.333 30.667 17 62 17 94c-15.333 153.333 -139.666 230 -373 230h-102c-34 0 -73.333 -7 -118 -21c-67.333 -26.667 -170 -63 -308 -109c-42.667 -12 -83.667 -18 -123 -18c-68.667 0 -133 24.667 -193 74c-27.333 22.667 -41 58 -41 106
c32.667 79.333 121.667 146.333 267 201c365.333 44.667 702.666 151.667 1012 321c143.333 78.667 229 156 257 232c-95.333 175.333 -241.333 291.333 -438 348c-48.667 14 -91 21 -127 21c-110.667 0 -225.334 -54.667 -344.001 -164
c-40 -36.667 -108.333 -120 -205 -250c-10 -35.333 -34.333 -53 -73 -53c-36 0 -62 2.66699 -78 8c0 104.667 29 209.334 87 314c63.333 115.333 134 200.333 212 255c132.667 93.333 277.334 140 434.001 140c73.333 0 140.333 -11 200.999 -33
c29.333 -6.66699 103.333 -46.334 222 -119.001c139.333 -85.333 221 -134 245 -146c85.333 -42 167 -63 245 -63c156 0 311.667 37 467 111c48.667 -12 78.667 -32.667 90 -62c-42.667 -85.333 -155 -178.333 -337 -279c-12 -6.66699 -78.333 -46 -199 -118l-725 -434
c0 -66 12.333 -99 37 -99c96 -34.667 181.333 -87.334 256 -158.001c78 -74.667 115.333 -166.667 112 -276c-3.33301 -101.333 -35 -198.666 -95 -291.999c-56.667 -88.667 -121.667 -164.667 -195 -228c-104.667 -91.333 -201.667 -167.666 -291 -228.999
c-72 -49.333 -174 -106 -306 -170c-217.333 -104.667 -434 -176 -650 -214c-126 -22.667 -234.667 -32.667 -326 -30c-207.333 6 -379.333 74.333 -516 205c-40.667 30 -78.667 87.667 -114 173c-33.333 80.667 -50 148.667 -50 204c0 198.667 79 324 237 376
c39.333 8.66699 75 13 107 13c63.333 0 141 -23.333 233 -70c11.333 -11.333 17 -26.333 17 -45c0 -21.333 -12.333 -33.666 -37 -36.999c-28.667 8 -63 12 -103 12c-86 0 -148.667 -23 -188 -69c0 18 -6.83301 7.66699 -20.5 -31s-20.5 -64 -20.5 -76
c-4 -28.667 4.33301 -61.334 25 -98.001z" />
    <glyph glyph-name="four" unicode="4" horiz-adv-x="2458" 
d="M1757 877c-405.333 -87.333 -922.669 -143.333 -1552 -168c-82 5.33301 -139.333 24.333 -172 57c-24.667 16 -37 33.667 -37 53s12.333 41.333 37 66c277.333 127.333 533 280 767 458c112.667 85.333 216.667 172 312 260l297 293l274 258c48 45.333 174 152 378 320
c426.667 350.667 691.334 526.667 794 528c26 -6 42.333 -33.333 49 -82c-19.333 -60.667 -161.333 -186 -426 -376c-108 -77.333 -184.333 -136.333 -229 -177l-548 -512l-435 -417l-287 -236c-39.333 -36 -76.333 -77.667 -111 -125c0 -30 45.333 -45 136 -45
c36.667 0 91.834 1.33301 165.501 4s128.834 4 165.501 4c176 0 314 -30 414 -90c27.333 -11.333 41 -26.333 41 -45c0 -14 -11 -23.333 -33 -28zM1417 0c-139.333 25.333 -208.999 74.334 -208.999 147.001c0 14 7 33.333 21 58c30.667 86.667 365 382.667 1003 888
c248.667 196.667 433 333.334 553 410.001c98 62.667 178.667 94 242 94c45.333 -14.667 70 -40.334 74 -77.001c-42.667 -62 -136.667 -143 -282 -243c-75.333 -51.333 -134.333 -97.333 -177 -138l-700 -668c-41.333 -24.667 -76.333 -79.334 -105 -164.001l-66 -197
c-18.667 -36.667 -68.334 -65 -149.001 -85c-44 -16.667 -112.333 -25 -205 -25z" />
    <glyph glyph-name="five" unicode="5" horiz-adv-x="2662" 
d="M1425 1786c178 60 333.663 89.999 466.996 89.999c197.333 0 373.666 -71 529 -213c57.333 -52 86 -138 86 -258c0 -44.667 -5.66699 -87 -17 -127c-54.667 -192.667 -175 -387.334 -361 -584.001c-92 -97.333 -175 -171.666 -249 -222.999
c-148 -103.333 -327 -196.333 -537 -279c-199.333 -78.667 -394.333 -118 -585 -118c-237.333 0 -436.666 69.667 -597.999 209c-44 54.667 -66 114.667 -66 180c0 106.667 42.333 192.667 127 258c60.667 46.667 130.334 70 209.001 70c52 0 94.333 -12.333 127 -37
c46.667 -34.667 70 -67.667 70 -99c0 -18.667 -8.16699 -44.5 -24.5 -77.5s-24.5 -58.833 -24.5 -77.5c0 -20 5.33301 -39.333 16 -58c40.667 -8 84.334 -12 131.001 -12c299.333 0 637.333 117 1014 351c150.667 93.333 278.334 189.333 383.001 288
c84.667 80 127 167.333 127 262c0 161.333 -113.333 242 -340 242c-76.667 0 -169.667 -12.333 -279 -37c-110.667 -50.667 -237.667 -84.667 -381 -102c-177.333 0 -266 77.667 -266 233c158 283.333 329 527.333 513 732c110.667 122.667 229 227 355 313
c164 55.333 307.333 85.333 430 90c67.333 2.66699 178 4 332 4c210 0 389 -27.333 537 -82c110 -78.667 166 -158 168 -238c0.666992 -40 -24.833 -81.333 -76.5 -124s-98.5 -64 -140.5 -64c-66 0 -124.667 42.333 -176 127c-42.667 50 -121 78.333 -235 85
c-56.667 3.33301 -147.667 5 -273 5c-212.667 0 -357.667 -32.667 -435 -98c-256 -215.333 -441.667 -425.666 -557 -630.999z" />
    <glyph glyph-name="six" unicode="6" horiz-adv-x="2662" 
d="M1753 1454c-338.667 0 -659 -144.333 -961 -433c-136 -130 -249.667 -269.667 -341 -419c-14 -40.667 -21 -81.667 -21 -123c0 -92.667 62.667 -139 188 -139c28 0 69.667 2.66699 125 8s97 8 125 8c208 24 415.667 82.667 623 176c216 97.333 395 216.333 537 357
c65.333 80 98 178.333 98 295c0 180 -124.333 270 -373 270zM3178 2462c-71.333 82 -166.666 123 -286 123c-66 0 -139.667 -11 -221 -33c-154.667 -42 -329.334 -122.333 -524.001 -241c-177.333 -108.667 -331.666 -223.834 -462.999 -345.5
c-131.333 -121.667 -197 -210.167 -197 -265.5c206.667 -2.66699 355 -12.334 445 -29.001c160.667 -30 292.334 -92.667 395.001 -188c62.667 -58 94 -144 94 -258c0 -44.667 -8.33301 -87 -25 -127c-38.667 -136.667 -102 -253.667 -190 -351
c-98.667 -108.667 -217 -211.667 -355 -309c-118.667 -84 -259 -161.667 -421 -233c-146.667 -65.333 -297.667 -115.666 -453 -150.999c-169.333 -39.333 -324.333 -57.333 -465 -54c-98 2 -198.333 33.333 -301 94c-96.667 56 -145 147.667 -145 275
c0 46.667 10.667 106.667 32 180c38 130.667 226 419 564 865c371.333 490 709 844.667 1013 1064c337.333 243.333 734.666 365 1192 365c210 0 389 -27.333 537 -82c110 -80 166 -159.333 168 -238c0.666992 -40 -24.833 -81.333 -76.5 -124s-98.5 -64 -140.5 -64
c-66 0 -125 42.333 -177 127z" />
    <glyph glyph-name="seven" unicode="7" horiz-adv-x="2458" 
d="M668 94c-30 32.667 -45.002 71.002 -45.002 115.002c0 24 15 73 45 147c116 202.667 250.667 382.334 404 539.001c178 182.667 373.667 356.667 587 522l315 227c234.667 169.333 402.667 332.666 504 489.999c-76 14 -163 58 -261 132l-228 194
c-86.667 73.333 -164 117.666 -232 132.999c-128.667 0 -260 -97.333 -394 -292c-55.333 -80.667 -87.666 -150 -96.999 -208c14.667 -32.667 65 -49 151 -49c0 -15.333 -1.66699 -31.333 -5 -48l-7 -30c-44.667 -54.667 -104.667 -82 -180 -82
c-23.333 0 -50.666 4 -81.999 12c-74.667 18.667 -122.667 69.334 -144 152.001c0 200.667 105.333 416.334 316 647c110 120 217.667 180 323 180c40.667 0 81.667 -8 123 -24c338.667 -243.333 636.334 -365 893 -365c166 0 320.333 43.667 463 131c25.333 16 54 38 86 66
c76 68 144.333 102 205 102c36 0 67.5 -16 94.5 -48s40.5 -66.333 40.5 -103c0 -54 -28.667 -106 -86 -156c-14.667 -22 -53.667 -50.667 -117 -86c-86.667 -48.667 -132.334 -74.667 -137 -78c-27.333 -18.667 -45 -47.334 -53 -86l102 -24
c-22.667 -47.333 -63 -81 -121 -101c-12.667 -4.66699 -66.334 -16.334 -161.001 -35.001c-85.333 -16.667 -144.333 -38.334 -177 -65.001l-545 -443c-527.333 -438 -928.666 -873.333 -1204 -1306c0 -56.667 35 -111.667 105 -165c34 -26.667 58 -48 72 -64
c-128.667 -16.667 -225.667 -25 -291 -25c-128.667 12.667 -216 44 -262 94z" />
    <glyph glyph-name="eight" unicode="8" horiz-adv-x="2458" 
d="M2540 2580c-19.333 19.333 -52.333 28.998 -99 28.998c-86.667 0 -201.334 -29 -344 -87c-128 -52.667 -244 -116.334 -348 -191c-73.333 -53.333 -140.333 -122.666 -201 -207.999c-68 -95.333 -102 -183 -102 -263c0 -83.333 45 -143.666 135 -180.999
c121.333 10 267 80 437 210l223 171c68.667 68 166.667 175.333 294 322c38.667 51.333 58 94.333 58 129c0 30 -17.667 53 -53 69zM1315 196.998c-271.333 -131.333 -516.999 -197.001 -736.999 -197.001c-167.333 0 -305 31 -413 93
c-111.333 62.667 -167.666 134 -168.999 214c-2.66699 136 43.666 267.333 138.999 394c157.333 210 390.666 393.333 699.999 550l218 109c150 76 225 145.667 225 209c0 20.667 -11.333 45.334 -34 74.001c-28 36.667 -44 59.667 -48 69c-13.333 31.333 -20 75 -20 131
c0 128.667 49.667 269 149 421c94 144.667 266.667 288.334 518 431c200.667 114 370 174 508 180c63.333 8.66699 120.666 13 172 13c234.667 0 352 -87.333 352 -262c0 -94.667 -31.333 -201.334 -94 -320c-68 -128.667 -179.333 -254.334 -334 -377.001
c-76 -60 -217 -155.333 -423 -286c-180.667 -115.333 -271 -188 -271 -218c0 -10.667 5.33301 -20 16 -28c109.333 -80 185.333 -152.333 228 -217c36.667 -56 55 -120.333 55 -193c0 -96.667 -35.333 -197.667 -106 -303c-120 -179.333 -330.333 -341.666 -631 -486.999z
M901.001 1004c-212.667 -122 -382.334 -279.334 -509.001 -472.001c-59.333 -90.667 -89 -167 -89 -229c0 -90.667 61.333 -139.667 184 -147c404.667 35.333 735.334 164 992.001 386c124 107.333 204.333 228.333 241 363c0 70.667 -15 129.334 -45 176.001
c-56 87.333 -128.333 131 -217 131c-129.333 0 -315 -69.333 -557 -208z" />
    <glyph glyph-name="nine" unicode="9" horiz-adv-x="2662" 
d="M2150 1323c230 198 433 447 609 747c83.333 142 125 254.667 125 338c0 27.333 -3 46.666 -9 58c-10.667 40 -23.334 65.667 -38 77c-14.667 11.333 -42.667 17 -84 17c-383.333 -86 -728 -239 -1034 -459c-158.667 -114 -284 -238 -376 -372
c-24 -34.667 -36 -67.667 -36 -99c0 -100 119.667 -179 359 -237c142.667 -34.667 304 -58 484 -70zM664 307c232 52.667 465.664 157.333 700.997 314c227.333 152 414 324.667 560 518c-45.333 14 -97.666 21.667 -156.999 23l-199 5c-74 2 -135.667 9 -185 21
c-131.333 0 -249.666 58 -354.999 174c-52.667 58 -79 128.333 -79 211c0 59.333 18 129 54 209c52.667 117.333 121 218 205 302c106.667 106.667 217 199.667 331 279c471.333 328 890.666 492 1258 492c120 0 210 -12.333 270 -37c79.333 -32.667 119 -109 119 -229
c0 -288 -175.333 -670.667 -526 -1148c-377.333 -513.333 -842.333 -939 -1395 -1277c-189.333 -84 -317.666 -129 -384.999 -135c-59.333 -20.667 -157.666 -29 -294.999 -25c-98 2.66699 -200.667 27.667 -308 75c-98 42.667 -168.667 107.667 -212 195
c-20 40 -31 92 -33 156c-2.66699 74.667 13 165 47 271c31.333 98.667 78.333 171 141 217c28.667 21.333 58.667 32 90 32c66 0 99 -38 99 -114c0 -82 -49.333 -123 -148 -123c-13.333 -45.333 -20 -90.333 -20 -135c0 -86.667 17.667 -149.667 53 -189
c58.667 -65.333 139.334 -98 242.001 -98c37.333 0 79.666 5.33301 126.999 16z" />
    <glyph glyph-name="colon" unicode=":" horiz-adv-x="2867" 
d="M733 401c19.333 6 44 8.99902 74 8.99902c32.667 0 51 -7.33301 55 -22c1.33301 -6.66699 3.33301 -14.334 6 -23.001c0 -54.667 -10.667 -104.167 -32 -148.5s-47.333 -78.166 -78 -101.499c-90 -68.667 -189.667 -103 -299 -103c-88 12.667 -152.333 66 -193 160
c-13.333 30.667 -20 63.334 -20 98.001c0 34 9.33301 69.667 28 107c30 60 102.667 101 218 123c20 -4.66699 58.333 -23.667 115 -57c48.667 -28 90.667 -42 126 -42zM1126 1073c-74.667 0 -117.001 16.334 -127.001 49.001c14.667 121.333 60 200.666 136 237.999
c74 46.667 176.333 70 307 70c82.667 -19.333 141.334 -78.333 176.001 -177c0 -10.667 2.66699 -35 8 -73c0 -50 -13.667 -93.667 -41 -131c-30.667 -55.333 -105.667 -88.333 -225 -99c-20.667 6.66699 -58 30.667 -112 72c-45.333 34 -86 51 -122 51z" />
    <glyph glyph-name="semicolon" unicode=";" horiz-adv-x="2867" 
d="M1126 1110c-74.667 0 -117 16.335 -127 49.002c14.667 121.333 60 200.666 136 237.999c72.667 46 175 69 307 69c82 -18 140.667 -76.667 176 -176c0 -10.667 2.66699 -35 8 -73c0 -50.667 -13.667 -94.667 -41 -132c-30.667 -54.667 -105.667 -87.334 -225 -98.001
c-20.667 6.66699 -58 30.667 -112 72c-45.333 34 -86 51 -122 51zM-94 -511.998c131.333 56 276.332 206.997 434.999 452.997c77.333 120.667 139.666 206.334 186.999 257.001c80.667 86.667 168.334 142.334 263.001 167.001c83.333 0 146 -18 188 -54
c32.667 -28 49 -66 49 -114c0 -10.667 -2.66699 -32.667 -8 -66c-54.667 -127.333 -152.667 -241.333 -294 -342c-86 -61.333 -220 -135.666 -402 -222.999c-139.333 -52 -278.666 -78 -417.999 -78z" />
    <glyph glyph-name="equal" unicode="=" horiz-adv-x="3072" 
d="M2294 573c-292.667 41.333 -512.668 62 -660.001 62c-345.333 0 -692 -53.333 -1040 -160c-8 8 -12 19 -12 33c0 49.333 43 104.333 129 165c90.667 64 177.334 103.333 260.001 118c227.333 40.667 458 61 692 61c185.333 0 346.333 -11 483 -33
c174 -28 305.333 -55.333 394 -82c21.333 -6.66699 32 -16 32 -28c0 -26.667 -32.333 -57 -97 -91c-71.333 -36.667 -131.666 -51.667 -181 -45zM2380 1188c-61.333 8 -153.001 19.3311 -275.001 33.998c-133.333 12.667 -261.666 19 -384.999 19
c-354 0 -700.667 -52 -1040 -156c-8 8.66699 -12 19.667 -12 33c0 46.667 43.667 100.667 131 162c94.667 66 182 106.333 262 121c209.333 38 432 57 668 57c142 0 309.667 -12.333 503 -37c146 -18.667 278.667 -44.667 398 -78c18.667 -7.33301 28 -16.666 28 -27.999
c0 -35.333 -39 -66.666 -117 -93.999c-63.333 -22 -117 -33 -161 -33z" />
    <glyph glyph-name="question" unicode="?" horiz-adv-x="3072" 
d="M844 414c28 8 54.002 12 78.002 12c26 0 40.667 -7 44 -21c1.33301 -6.66699 3 -12 5 -16c0 -108.667 -28.667 -187.667 -86 -237c-78.667 -67.333 -166 -104.333 -262 -111c-78.667 4 -140.334 49 -185.001 135c-18.667 36 -28 70.333 -28 103
c0 98 69.333 167.333 208 208c21.333 -3.33301 57.666 -17.333 108.999 -42c44.667 -20.667 83.667 -31 117 -31zM2003 3879c95.333 -38.667 143.001 -98.665 143.001 -179.998c0 -54 -15 -100.667 -45 -140c-19.333 -32.667 -64.333 -50.334 -135 -53
c-38.667 -1.33301 -74 5.66699 -106 21c-114.667 32.667 -172 129.334 -172 290c0 70.667 9.66699 143 29 217c18 68.666 38.333 123.333 61 164c74 133.334 200.833 244.5 380.5 333.5s368.167 133.5 565.5 133.5c176 0 345.333 -45 508 -135
c234 -129.334 385.333 -279.334 454 -450c36 -89.333 54 -177 54 -263c0 -226.667 -134.667 -478 -404 -754c-106 -108.667 -332 -301 -678 -577c-402 -320.667 -685.667 -560 -851 -718c-300.667 -286.667 -531.667 -574.334 -693 -863.001
c0 -28.667 -13.333 -56.334 -40 -83.001s-54.334 -40 -83.001 -40c-87.333 0 -131 31.667 -131 95c0 27.333 12.333 61.333 37 102c95.333 204 291.333 448.667 588 734c60.667 58 299.667 269.333 717 634c344 300 574.333 512.667 691 638
c296.667 316.667 445 579 445 787c0 235.333 -177.333 429.333 -532 582c-72.667 16.666 -141 25 -205 25c-133.333 0 -257.666 -29 -373 -87c-128 -64.666 -218 -153.333 -270 -266c-14 -30 -21 -54.333 -21 -73c0 -37.333 22 -62 66 -74z" />
    <glyph glyph-name="at" unicode="@" horiz-adv-x="4342" 
d="M524 279c160.667 0 302.668 45.001 426.001 135.001c136.667 99.333 229.667 200.333 279 303c-137.333 32.667 -320.333 49 -549 49c-166.667 -16 -285.334 -69.333 -356.001 -160c-30 -28.667 -45 -68.334 -45 -119.001c0 -108 81.667 -177.333 245 -208zM2179 2216
c-206 0 -359.001 -55.9961 -459.001 -167.996c0 -82 -28.667 -140.667 -86 -176c-49.333 -41.333 -128.333 -62 -237 -62c-64 22.667 -97 65 -99 127c-2 63.333 40.333 141.333 127 233.999c95.333 101.333 216 183.333 362 246s289 94 429 94
c232.667 0 392.334 -65.667 479.001 -197c30 -45.333 45 -102.666 45 -171.999c0 -50 -16.333 -121 -49 -213c-87.333 -132 -295.333 -377 -624 -735c-125.333 -136.667 -227.333 -260.334 -306 -371.001c-2.66699 0 -4 -0.666992 -4 -2c3.33301 -4.66699 14 -12 32 -22
c28.667 -16.667 48 -25 58 -25c-156 -38 -352.667 -173.667 -590 -407c-115.333 -112.667 -204 -191 -266 -235c-108 -76.667 -215.667 -120.667 -323 -132c-172.667 1.33301 -315.667 33.666 -429 96.999c-142.667 79.333 -214 198.666 -214 357.999
c0 45.333 5.33301 80.666 16 105.999c78 186.667 235 324.667 471 414c86 22 181.667 33 287 33c236 0 453 -26 651 -78c560 560 863 956 909 1188c0 65.333 -60 98 -180 98zM2695 279.005c160.667 0 302.667 45 426 135c136.667 99.333 229.667 200.333 279 303
c-138.667 32.667 -321.667 49 -549 49c-167.333 -16.667 -286.333 -70 -357 -160c-30 -30 -45 -69.667 -45 -119c0 -108 82 -177.333 246 -208zM3072 2580c-44 -48 -66 -106.662 -66 -175.995c0 -82 24.667 -129.667 74 -143c49.333 -4 74 -20.333 74 -49
c0 -28 -20 -54.667 -60 -80c-36.667 -23.333 -70 -35 -100 -35c-54 0 -88 32.667 -102 98c-16.667 106.667 -25 184.667 -25 234c0 90 11 157 33 201c12 72.667 47 142 105 208c49.333 56.667 118 115.667 206 177c109.333 76 246 114 410 114
c240.667 0 422 -74.667 544 -224c60.666 -74.667 91 -162.334 91 -263c0 -72 -18 -150 -54 -234c101.334 49.333 199.667 74 295 74c88 0 164.666 -17 230 -51c67.334 -36 113.667 -75 139 -117c30 -49.333 45 -106.666 45 -172c0 -50 -16.334 -121 -49 -213
c-87.334 -132 -295.334 -377 -624 -735c-125.334 -136.667 -227.334 -260.334 -306 -371.001c-2.66699 0 -4 -0.666992 -4 -2c3.33301 -4.66699 14 -12 32 -22c28.667 -16.667 48 -25 58 -25c-156 -38 -352.667 -173.667 -590 -407c-115.333 -112.667 -204 -191 -266 -235
c-108 -76.667 -215.667 -120.667 -323 -132c-172.667 1.33301 -316 33.666 -430 96.999c-142.667 79.333 -214 198.666 -214 357.999c0 43.333 5.66699 78.666 17 105.999c78 186.667 235 324.667 471 414c86 22 181.667 33 287 33c236 0 453 -26 651 -78
c560 560 863 956 909 1188c0 65.333 -60 98 -180 98c-206 0 -359 -56 -459 -168c-35.333 -36 -77 -81 -125 -135c-20 -26.667 -30 -54 -30 -82c0 -28.667 9.33301 -52 28 -70c5.33301 -5.33301 28.666 -18.333 70 -39c32.667 -16 49 -31.667 49 -47
c0 -12.667 -5.33301 -30.334 -16 -53.001c-18 -38 -52.333 -57 -103 -57c-88 0 -154.667 35.333 -200 106c-164 0 -246 71 -246 213c29.333 49.333 104.666 113 226 191l268 163c84.667 54 130.334 102.667 137 146c27.333 48 41 101.333 41 160
c0 100.667 -34.5 186.5 -103.5 257.5s-153.5 106.5 -253.5 106.5c-174.667 0 -361.667 -109.333 -561 -328z" />
    <glyph glyph-name="A" unicode="A" horiz-adv-x="2458" 
d="M1270 930c22 -20 32.999 -40.6641 32.999 -61.9971c-2 -20.667 -20 -58.667 -54 -114c-36.667 -33.333 -95.334 -52.666 -176.001 -57.999l-154 -11c-204.667 -16 -358 -75 -460 -177c-49.333 -61.333 -74 -113.333 -74 -156c0 -76 94.333 -114 283 -114h90
c34.667 0 78.334 2.66699 131.001 8c24.667 2 43.667 3.33301 57 4c243.333 50.667 436 117.667 578 201c88 51.333 150.333 111.666 187 180.999c32.667 63.333 58.334 149.666 77.001 258.999c27.333 164 43 253.667 47 269c12 47.333 44.667 101.666 98 162.999
c173.333 200 394.666 324.333 664 373c122 22 235.333 33 340 33c160 0 304.667 -31.667 434 -95l94 -90c0 -49.333 -8 -83.333 -24 -102c-52 10.667 -156 21.667 -312 33c-75.333 8 -129.666 12 -163 12c-257.333 0 -497.666 -72.333 -721 -217
c-82.667 -86 -180.334 -303.333 -293 -652c-76 -234.667 -225.667 -386 -449 -454c-339.333 -104 -657.333 -156 -954 -156c-293.333 0 -472.333 64.333 -537 193c-13.333 50 -20 93.667 -20 131c0 177.333 95.667 331.666 287 462.999c223.333 153.333 477 228.333 761 225
c89.333 -1.33301 166 -31.333 230 -90z" />
    <glyph glyph-name="C" unicode="C" horiz-adv-x="2662" 
d="M1446 446c-36 60.667 -95.999 91.002 -179.999 91.002c-156 0 -283 -93 -381 -279c-21.333 62.667 -57 94 -107 94c-35.333 -7.33301 -85.666 -40 -150.999 -98c-141.333 -126 -248.333 -227.667 -321 -305c-47.333 -49.333 -89.333 -99.333 -126 -150
c-122.667 0 -184 54.667 -184 164c0 40 11 72.667 33 98l966 1085c826.667 910 1569.67 1669.33 2229 2278c383.333 353.333 694.333 610 933 770c180.666 120.666 388.333 181 623 181c244.666 0 407 -49.334 487 -148c46.666 -42 70 -107.666 70 -197
c0 -127.333 -28.666 -231 -86 -311c-177.334 -247.333 -434 -540.666 -770 -879.999c-100.666 -102 -245.333 -232 -434 -390c-218 -182 -365.667 -309 -443 -381l-1171 -901c-103.333 -134.667 -265.666 -215 -487 -241c-162 0 -267.333 32.667 -316 98
c-5.33301 7.33301 -8 25 -8 53c0 93.333 26 165.666 78 216.999c75.333 60 155 98.667 239 116l290 60c262 54 607.333 227.667 1036 521l954 860c192 172.667 345 319 459 439c132.666 140 251.333 291.333 356 454c65.334 79.333 98 153 98 221
c0 85.333 -35.334 144 -106 176c-60 27.334 -125.666 41 -197 41c-173.334 0 -324.667 -43.666 -454 -131c-212 -90.667 -691.667 -524.667 -1439 -1302l-1023 -1067l-795 -810c-22 -22 -33 -45 -33 -69c0 -40.667 26 -58.334 78 -53.001c109.333 30 216 45 320 45
c124.667 0 229.667 -28.667 315 -86c41.333 -28 62 -96.333 62 -205c-39.333 -158 -146 -298.667 -320 -422c-46 -32.667 -132 -49 -258 -49c-12.667 5.33301 -27.667 17.666 -45 36.999c41.333 54 98.666 135.333 171.999 244c21.333 37.333 33.666 81.333 36.999 132z" />
    <glyph glyph-name="E" unicode="E" horiz-adv-x="1556" 
d="M-3932 -1389c34.667 27.333 67.3359 40.999 98.0029 40.999c44 0 66 -21.667 66 -65c0 -38 -20.667 -85.667 -62 -143c18.667 -366.667 252 -617.667 700 -753c202.667 -60.667 422.667 -91 660 -91c241.333 0 475 30.667 701 92c212.667 58 399.667 144.667 561 260
c218.667 155.333 436 354.666 652 597.999c412.667 463.333 814.334 1002 1205 1616c150 236.667 243.667 394.334 281 473.001c29.333 44.667 69.333 113.334 120 206.001c12.667 30 19 59.667 19 89c0 20.667 -9.5 44.5 -28.5 71.5s-49.167 39.833 -90.5 38.5
c-57.333 -2 -126 -27 -206 -75c-77.333 -47.333 -131.333 -124.666 -162 -231.999c0 -8 2.66699 -17.333 8 -28c54.667 -36.667 82 -75 82 -115c0 -38.667 -22 -78.334 -66 -119.001c-24.667 -10.667 -57.334 -16 -98.001 -16c-92 0 -153.333 31.333 -184 94
c0 122 28 247.333 84 376c58.667 134 150.667 232.667 276 296c96 48.667 199.667 73 311 73c99.333 0 178.666 -20.333 237.999 -61c106.667 -72.667 160 -182 160 -328c-76 -296.667 -339.667 -766 -791 -1408c-220.667 -312.667 -477.334 -628 -770.001 -946
c-324 -352 -632.667 -632.333 -926 -841c-140.667 -100 -341 -181.667 -601 -245c-234.667 -57.333 -476.667 -86 -726.001 -86c-430.667 0 -794.334 80 -1091 240c-150 81.333 -269.333 183.666 -358 307c-90.667 127.333 -138.667 271.333 -144 432
c-2.66699 73.333 24.666 156.333 82 249z" />
    <glyph glyph-name="I" unicode="I" horiz-adv-x="0" 
 />
    <glyph glyph-name="J" unicode="J" horiz-adv-x="3072" 
d="M-1282 -3469c-64 16 -103.667 44.6689 -119 86.002c-5.33301 21.333 -8 35 -8 41c0 44.667 28 96 84 154c28.667 29.333 47 49 55 59c46 33.333 106.333 95.666 181 187c73.333 89.333 134.666 151 183.999 185l872 1033l488 591l491 596l347 407l431 478l208 229
l284 283c14 9.33301 33.333 26.333 58 51c8 11.333 12 24.333 12 39c0 20 -15 36.333 -45 49c-4.66699 0 -11.5 -0.666992 -20.5 -2s-15.833 -2 -20.5 -2c-151.333 -202 -300.333 -350.667 -447 -446l-712 -402c-261.333 -136 -493.666 -204 -696.999 -204
c-83.333 0 -165.333 12.333 -246 37l-127 106c-27.333 60.667 -41 115.334 -41 164.001c0 80 26 152.333 78 217c42.667 67.333 153.334 163 332.001 287l111 53c29.333 6.66699 89.333 32 180 76c76 36.667 136 55 180 55c25.333 0 54 -6.66699 86 -20
c40.667 -34 62.667 -64.333 66 -91c0 -33.333 -19.333 -75.666 -58 -126.999l-344 -96c-110 -32.667 -186.333 -93.334 -229 -182.001c-27.333 -56.667 -41 -101.667 -41 -135c0 -24.667 2.66699 -42.667 8 -54c26.667 -32.667 69 -49 127 -49c30 0 64 1.33301 102 4
c136 9.33301 286.333 55 451 137c74.667 36.667 153.334 80 236.001 130c51.333 29.333 121.333 71.666 210 126.999c114.667 76.667 211.334 150.667 290.001 222c64 58 115 134 153 228c-92.667 124 -139 255 -139 393c0 92.667 20.333 176 61 250l152 176
c53.333 44 99.666 66 138.999 66c67.333 -26 109.666 -72.333 127 -139c8 -22 12 -57.667 12 -107v-98c0 -98 26 -163.667 78 -197c13.333 -5.33301 35 -8 65 -8c67.333 0 155 27.333 263 82c39.333 20 100 57.667 182 113c103.333 70 223.333 160.667 360 272l170 139
l750 635c88 73.333 225.334 176.333 412 309c65.334 39.333 136.667 66 214 80c32.666 -4 58.666 -25.667 78 -65c0 -49.333 -2.66602 -86.333 -8 -111c-224 -168 -401.334 -321 -532 -459c-124.667 -92 -247.334 -195.667 -368.001 -311l-223 -216l-167 -161
c-259.333 -222.667 -526 -477.334 -800 -764.001l-453 -478l-455 -474l-275 -319c-94 -96 -227.667 -246.333 -401 -451c-38.667 -36.667 -90.667 -99.334 -156 -188.001c-56 -50.667 -146.333 -150.667 -271 -300l-114 -135l-970 -1183l-652 -750
c-48.667 -68 -122.334 -102 -221.001 -102h-8zM2232 897.002c2 0 5.83301 3.5 11.5 10.5s11.5 10.5 17.5 10.5c0 -2.66699 -3.83301 -6.16699 -11.5 -10.5s-12.167 -7.83301 -13.5 -10.5h-4z" />
    <glyph glyph-name="P" unicode="P" horiz-adv-x="0" 
 />
    <glyph glyph-name="Q" unicode="Q" horiz-adv-x="0" 
 />
    <glyph glyph-name="R" unicode="R" horiz-adv-x="3686" 
d="M1925 868c-32 11.333 -71.6631 17.001 -118.996 17.001c-105.333 0 -231.333 -34.667 -378 -104l-150 -72l-541 -328c-44.667 -38.667 -78.334 -72.334 -101.001 -101.001c-24 -31.333 -35.333 -67.333 -34 -108c1.33301 -36 38.333 -66 111 -90
c120 -19.333 303 -29 549 -29c0 -56 -65.333 -100.667 -196 -134c-96.667 -25.333 -184.334 -38 -263.001 -38c-59.333 0 -115.333 7 -168 21c-130 20 -235.333 70.333 -316 151c-318.667 -196.667 -485 -368.667 -499 -516c0 -70 172 -134.667 516 -194
c132 -22.667 238.333 -42.667 319 -60c130 -28 220.667 -50.667 272 -68c65.333 -20.667 119.666 -55.334 162.999 -104.001c10.667 -12 16 -27 16 -45c0 -53.333 -53.333 -121.666 -160 -204.999c-250 -195.333 -568.333 -362 -955 -500
c-182.667 -65.333 -364.334 -117.333 -545.001 -156c-201.333 -43.333 -367.666 -65 -498.999 -65s-231 48 -299 144c390 0 833.333 99 1330 297c476 190 725 332.667 747 428c-88.667 47.333 -242.334 86 -461.001 116c-251.333 34 -417.333 64.333 -498 91
c-112.667 38 -197 122 -253 252c-8.66699 15.333 -13 33 -13 53c0 91.333 52 181.333 156 270c176 211.333 469.667 461.333 881 750l304 198c281.333 183.333 511.666 312 690.999 386c108.667 44.667 201.334 67 278.001 67c52.667 0 93.667 -9.66699 123 -29
c132.667 -68 274.667 -102 426 -102c70 0 135.667 5.33301 197 16c112 19.333 226.667 56.333 344 111c120 55.333 226.333 84 319 86c163.333 2.66699 289 -27.333 377 -90c62.667 -45.333 94 -92 94 -140c0 -83.333 -18.333 -151.666 -55 -204.999
c-46.667 -68.667 -104.667 -136.667 -174 -204c-44.667 -43.333 -132.334 -104 -263 -182c-121.333 -72 -197.333 -118.667 -228 -140c-82.667 -56.667 -148.334 -116 -197 -178c-18.667 -90 -87 -135 -205 -135c0 212.667 132.667 394.334 398 545.001
c202 114.667 322 236 360 364c5.33301 8.66699 8 23.667 8 45c0 81.333 -71 117 -213 107c-82 -6 -193 -49.333 -333 -130l-162 -91c-100 -54.667 -157.333 -86.334 -172 -95.001c-67.333 -40 -119 -78.333 -155 -115c-38.667 -39.333 -58 -85.333 -58 -138
c30.667 -16.667 73 -43.334 127 -80.001c16 -14.667 24 -38.667 24 -72c-11.333 -87.333 -77 -131 -197 -131c-2.66699 0 -69.334 16.333 -200.001 49c-29.333 0 -72.666 -7.5 -129.999 -22.5s-101.333 -22.5 -132 -22.5c-24 2.66699 -58.333 9.66699 -103 21
c-27.333 10 -53.333 31.667 -78 65c7.33301 60 87 133.333 239 220s228 156.667 228 210c0 42.667 -31.333 89 -94 139z" />
    <glyph glyph-name="S" unicode="S" 
d="M565 279c160.667 0 302.668 45 426.001 135c136.667 99.333 229.667 200.333 279 303c-138.667 32.667 -321.667 49 -549 49c-166.667 -16 -285.334 -69.333 -356.001 -160c-30.667 -29.333 -46 -69 -46 -119c0 -108 82 -177.333 246 -208zM270.001 1458
c22 -36 33.0029 -68.6631 33.0029 -97.9961c0 -38 -17.667 -57 -53 -57c-22.667 0 -37.667 8 -45 24c-52 112 -78 218.667 -78 320c0 108.667 22 209.667 66 303c163.333 347.333 480 589 950 725c122 35.333 255.667 53 401 53c352.667 0 529 -106.667 529 -320
c100.667 49.333 198.667 74 294 74c88 0 164.667 -17 230 -51c67.333 -36 113.666 -75 139 -117c30 -49.333 45 -106.666 45 -171.999c0 -50 -16.333 -121 -49 -213c-87.333 -132 -295.333 -377 -624 -735c-125.333 -136.667 -227.333 -260.334 -306 -371.001
c-2.66699 0 -4 -0.666992 -4 -2c3.33301 -4.66699 14 -12 32 -22c28.667 -16.667 48 -25 58 -25c-156 -38 -352.667 -173.667 -590 -407c-115.333 -112.667 -204 -191 -266 -235c-108 -76.667 -215.667 -120.667 -323 -132c-172.667 1.33301 -315.667 33.666 -429 96.999
c-142.667 79.333 -214 198.666 -214 357.999c0 45.333 5.33301 80.666 16 105.999c78 186.667 235 324.667 471 414c86 22 181.667 33 287 33c236 0 453 -26 651 -78c560 560 863 956 909 1188c0 65.333 -60 98 -180 98c-206 0 -359 -56 -459 -168
c-35.333 -36 -77 -81 -125 -135c-20 -26.667 -30 -54 -30 -82c0 -28.667 9.33301 -52 28 -70c5.33301 -5.33301 28.666 -18.333 69.999 -39c32.667 -16 49 -31.667 49 -47c0 -12.667 -5.33301 -30.334 -16 -53.001c-18 -38 -52.333 -57 -103 -57
c-88.667 0 -155.334 35.333 -200.001 106c-164 0 -246 71 -246 213c29.333 48 105 111.667 227 191l268 164c84 53.333 129.333 101.666 136 145c-84.667 74.667 -217.334 108.667 -398.001 102c-174 -6.66699 -362 -58.334 -564 -155
c-176 -84.667 -322.333 -196.667 -439 -336c-109.333 -130 -164 -268 -164 -414c0 -27.333 5.33301 -68.333 16 -123z" />
    <glyph glyph-name="T" unicode="T" horiz-adv-x="3195" 
d="M1548 774c19.333 26.667 28.999 53.999 28.999 81.999c0 65.333 -54.667 98 -164 98c-20 0 -47.333 -2.66699 -82 -8c-130 -20.667 -266.667 -96.334 -410 -227.001l-176 -162l-4 8c0 26.667 -6 66.334 -18 119.001c-7.33301 14.667 -25.666 28.334 -54.999 41.001
c-28 0 -67 -16 -117 -48c-25.333 -16.667 -41 -26.667 -47 -30c-156 -140 -234 -238.333 -234 -295c0 -64 67 -102 201 -114c306.667 0 665.667 178.667 1077 536zM3207 876.999c-40.667 -102.667 -99.3311 -191.999 -175.997 -267.999
c-108.667 -107.333 -211 -193 -307 -257c-190.667 -128 -377.667 -218 -561 -270l-74 -21c0 38 23.333 76.333 70 115l299 201c130 87.333 205 139 225 155c82.667 63.333 145 128.666 187 195.999c32 51.333 53 107.666 63 168.999c0 58.667 -15 99.667 -45 123
c-60.667 32.667 -122.334 49 -185.001 49c-85.333 0 -185 -16.333 -299 -49c-385.333 -110.667 -652.666 -259.667 -801.999 -447c-8.66699 -8 -13 -33.667 -13 -77l29 -9c16 0 40 8.33301 72 25s55.667 25 71 25c19.333 0 31.666 -3 36.999 -9
c16.667 -12.667 25 -34.334 25 -65.001c0 -24.667 -5.66699 -48 -17 -70c-15.333 -57.333 -59 -98.333 -131 -123c-32.667 -8 -65.334 -12 -98.001 -12c-59.333 0 -167.333 23.333 -324 70c-174 -89.333 -281.667 -143.666 -323 -162.999
c-124 -58.667 -236.333 -101.667 -337 -129c-86.667 -24 -157.334 -36 -212.001 -36h-4c-140.667 0 -246 46.333 -316 139c-38 39.333 -57 91.333 -57 156c0 24 4 50 12 78c71.333 250.667 231.333 452.667 480 606c81.333 50 198.333 97.333 351 142
c146 42 288.333 63 427 63c144.667 0 269 -24.667 373 -74c54 -26 93.333 -64.333 118 -115c366.667 183.333 704 275 1012 275c127.333 0 243.333 -35.667 348 -107c66 -45.333 99 -110.666 99 -195.999c0 -31.333 -5.66699 -61.333 -17 -90z" />
    <glyph glyph-name="U" unicode="U" 
d="M1372 618c0 88 -38.3311 132.003 -114.998 132.003c-26 0 -56 -7 -90 -21c-110 -84 -283 -197.667 -519 -341c-84 -40 -170.333 -60 -259 -60c-65.333 0 -110 6 -134 18c-36 18 -54 55.667 -54 113c19.333 65.333 86.666 155.666 201.999 270.999
c113.333 113.333 170 201.666 170 264.999c0 32 -19 95 -57 189c-91.333 157.333 -212.666 257 -363.999 299c-96 0 -144 20.333 -144 61c87.333 49.333 187 74 299 74c81.333 0 149.666 -8.33301 204.999 -25c220.667 -66 368 -203.667 442 -413
c14 -60 21 -155.667 21 -287c3.33301 -14 13 -21 29 -21c22 0 67.333 20.833 136 62.5s165.667 96.834 291 165.501c83.333 39.333 166 59 248 59c56 0 106.667 -9.66699 152 -29c31.333 -6.66699 69.666 -38 114.999 -94c15.333 -18.667 20.666 -41.667 15.999 -69
c0 -46.667 -13.667 -98.667 -41 -156c-38.667 -82 -159.667 -248.667 -363 -500c-454 -563.333 -1003.33 -1147 -1648 -1751c-391.333 -366 -726 -648 -1004 -846c-140 -100 -340.333 -181.667 -601 -245c-234.667 -57.333 -476.667 -86 -726.001 -86
c-430.667 0 -794.334 80 -1091 240c-150 81.333 -269.333 183.666 -358 306.999c-90.667 127.333 -138.667 271.333 -144 432c-2.66699 73.333 24.666 156.333 82 249c34.667 27.333 67.334 41 98.001 41c44 0 66 -21.667 66 -65c0 -38 -20.667 -85.667 -62 -143
c18.667 -366.667 252 -617.667 700 -753.001c202.667 -60.667 422.667 -91 660 -91c241.333 0 475 30.667 701 92c212.667 58.667 399.667 145.334 561 260c242.667 172.667 494.334 373.667 755.001 603c662 580.667 1180.67 1109 1556 1585
c179.333 228 269 387.333 269 478z" />
    <glyph glyph-name="V" unicode="V" horiz-adv-x="1556" 
d="M717 188c-53.333 0 -185.67 -33.9971 -397.003 -101.997l-127 -41c-109.333 0 -164 37 -164 111c0 26 16.333 49 49 69c20.667 20.667 107 56 259 106l298 95c74.667 28 144.334 67.667 209.001 119c125.333 100 188 218.667 188 356c-31.333 62.667 -102.333 94 -213 94
c-26.667 0 -59.334 -5.33301 -98.001 -16c-19.333 -7.33301 -29 -21 -29 -41c0 -16.667 7 -35.667 21 -57c0 -52 -23.333 -94.667 -70 -128c-42 -29.333 -89.667 -44 -143 -44c-106.667 0 -160 49 -160 147c0 11.333 2.66699 30.333 8 57c38.667 58 75.667 99 111 123
c110 74.667 234 128 372 160c110.667 25.333 206.334 39 287.001 41c85.333 2 157.666 -13 216.999 -45c90 -70 135 -157.333 135 -262c0 -46 -8 -89.667 -24 -131c-24.667 -43.333 -86.667 -111.333 -186 -204c-89.333 -83.333 -144.666 -156 -165.999 -218
c18.667 -38 28 -80.333 28 -127c11.333 -18 17 -41.333 17 -70c0 -182.667 -209.667 -508 -629 -976c-429.333 -478.667 -964 -975.334 -1604 -1490c-344 -220.667 -786.333 -331 -1327 -331c-430.667 0 -794.334 80 -1091 240c-150 81.333 -269.333 183.666 -358 306.999
c-90.667 127.333 -138.667 271.333 -144 432c-2.66699 73.333 24.666 156.333 82 249c34.667 27.333 67.334 41 98.001 41c44 0 66 -21.667 66 -65c0 -38 -20.667 -85.667 -62 -143c18.667 -366.667 252 -617.667 700 -753.001c202.667 -60.667 422.667 -91 660 -91
c241.333 0 475 30.667 701 92c210.667 58 397.667 144.667 561 260c278 196.667 559.667 435.667 845 717c218.667 216 432.334 448 641.001 696c317.333 377.333 476 631.333 476 762c0 32.667 -12.333 53 -37 61z" />
    <glyph glyph-name="W" unicode="W" horiz-adv-x="2867" 
d="M1540 352l320 90l-115 140zM463 434c0 -172 97 -257.998 291 -257.998c116 0 221.333 42.333 316 127c52 46.667 126.167 137.167 222.5 271.5s174.833 225.5 235.5 273.5c-70.667 9.33301 -133.667 13.333 -189 12c-170.667 -3.33301 -320.667 -28 -450 -74
c-108.667 -38.667 -202.667 -86.334 -282 -143.001c-70 -50.667 -118 -120.334 -144 -209.001zM2048 221.002c-352.667 0 -643.333 -118.664 -872 -355.997c-649.333 -673.333 -1300.67 -1404 -1954 -2192c-56 -64 -136.667 -163 -242 -297c-36 -51.333 -66 -105 -90 -161
c-16 -93.333 -81.667 -140 -197 -140c-128 0 -192 79.333 -192 238c23.333 49.333 68.333 93 135 131c42 24 72 44.667 90 62l291 286l374 451l581 688l380 458c202 252.667 311.333 410 328 472c-14 0 -51.333 0.666992 -112 2l-117 2
c-216.667 0 -372.334 42.333 -467.001 127c-19.333 41.333 -29 86.333 -29 135c0 90 30.333 191.667 91 305l56 105c186 263.333 436 450.333 750 561c160.667 56.667 317.667 86.667 471 90c129.333 2.66699 274 -19.333 434 -66c122.667 112 294 283 514 513l305 319
l436 486c148 158.667 276 282 384 370l262 213c30.667 22.667 78.667 53.667 144 93c22.667 11.333 49.667 17 81 17c16.667 -12.667 25 -29 25 -49c0 -80 -146.333 -280.667 -439 -602l-1425 -1564c-5.33301 -11.333 -8 -18.333 -8 -21c0 -14.667 19 -43.334 57 -86.001
c40.667 -44.667 62.667 -77.334 66 -98.001c92 0 228.667 50 410 150c103.333 57.333 178 87.666 224 90.999c41.333 -12 67.333 -47.333 78 -106c0 -64 -21.667 -120 -65 -168l-103 -74l-254 -160c3.33301 -32 23.333 -86.667 60 -164c44.667 -94.667 67 -166.667 67 -216
c0 -36 -10.667 -71.667 -32 -107c-45.333 -35.333 -87.666 -53 -127 -53c-17.333 0 -36.666 4 -58 12c-36 60 -99.333 145.333 -190 256c-34 31.333 -74.333 47 -121 47z" />
    <glyph glyph-name="Z" unicode="Z" horiz-adv-x="2253" 
d="M1307 897c-42.667 46 -130.332 70.667 -262.999 74c-80.667 2 -164.667 -14 -252 -48c-80.667 -31.333 -141.334 -79.666 -182.001 -144.999c-35.333 -56.667 -53 -111.334 -53 -164.001c0 -78 32 -138.667 96 -182c56 -36.667 125 -55 207 -55
c176.667 24 307.667 111.333 393 262c46.667 82 70 143.333 70 184c0 27.333 -5.33301 52 -16 74zM2114 930c-138.667 -3.33301 -267.666 -54 -386.999 -152c-65.333 -53.333 -161.333 -158.166 -288 -314.499s-233.334 -265.833 -320.001 -328.5
c-128 -92.667 -270.333 -139 -427 -139c-179.333 18 -309 109.333 -389 274c-43.333 89.333 -65 178.333 -65 267c0 99.333 28.667 209.666 86 330.999c96 156 234.667 267.333 416 334c86.667 32 176 52 268 60c24 5.33301 54 8 90 8c49.333 0 118.5 -11.5 207.5 -34.5
s150.833 -34.833 185.5 -35.5c51.333 -0.666992 85.333 10.333 102 33l99 78c74.667 59.333 208 195.333 400 408l1178 1370l466 548l258 279c7.33301 10.667 15.333 16 24 16c30 0 45 -32.667 45 -98c0 -36.667 -8 -66.667 -24 -90
c-137.333 -197.333 -477.666 -622.333 -1021 -1275l-582 -705c-215.333 -267.333 -399.333 -510 -552 -728c16 -21.333 52.333 -41.333 109 -60c67.333 -22 107.666 -37.333 121 -46z" />
    <glyph glyph-name="asciicircum" unicode="^" horiz-adv-x="5325" 
d="M2216 1139c134 0 248.667 -53.3301 344 -159.997c32.667 -48.667 49 -99.334 49 -152.001c0 -134 -107.667 -274.333 -323 -421c-308.667 -210.667 -505.334 -336.334 -590.001 -377.001c-12 -2 -35 -10 -69 -24c-29.333 -11.333 -53 -17 -71 -17
c-18.667 0 -28 10.667 -28 32c49.333 108.667 184 246.667 404 414c115.333 87.333 200.333 161 254.999 221c41.333 57.333 62 101 62 131c0 18.667 -4.33301 33.667 -13 45c-12.667 49.333 -64.334 74 -155.001 74c-141.333 0 -308 -61.333 -500 -184
c-80 -51.333 -136 -107.333 -168 -168c52 -18.667 78 -58.334 78 -119.001c0 -76.667 -79.333 -115 -238 -115c-11.333 -2 -38 -10.667 -80 -26c-36.667 -13.333 -61.667 -19.666 -75 -18.999c-49.333 2 -105 16.667 -167 44c-74.667 33.333 -112 70.666 -112 111.999
c0 26.667 22 51.334 66 74.001l118 42c88 32 132 83.333 132 154c-19.333 60 -63 99.667 -131 119c-264 0 -489.333 -104 -676 -312c-74 -82 -111 -144.667 -111 -188l25 -36c87.333 35.333 154 53 200 53c92 0 156.333 -28.667 193 -86
c10.667 -16.667 16 -37.334 16 -62.001c0 -50 -24.667 -95 -74 -135c-52 -42 -125.667 -63.667 -221 -65c-119.333 -2 -184.666 54 -195.999 168c-33.333 2 -67.333 16.833 -102 44.5s-56.667 57.834 -66 90.501c-5.33301 18 -8 30.333 -8 37
c0 73.333 32.667 119.666 98 138.999c42 119.333 127.667 233.333 257 342c134.667 112.667 263.334 189.667 386.001 231c100 33.333 198.333 50 295 50c178 0 305 -52 381 -156l33 -62v-8l20 -53c106.667 64.667 271.334 154 494.001 268c96.667 40 186 60 268 60z
M5874 3391c16.666 6 33 9.00098 49 9.00098c30 0 45 -13.667 45 -41c0 -30 -13.666 -72.333 -41 -127c-128.666 -132.667 -797.833 -418.834 -2007.5 -858.501c-1209.67 -439.667 -2266.17 -788.5 -3169.5 -1046.5c-16.667 0 -25 5.33301 -25 16
c0 24.667 13.5 56.5 40.5 95.5s51.833 61.833 74.5 68.5c547.333 166 1463 501.667 2747 1007l1502 591c453.334 178 715 273.333 785 286zM3748 229.004c119.333 0 246.333 45.333 381 136c148.666 100 240 181.667 274 245c-119.334 30 -290 45 -512 45
c-156 -16.667 -268 -63 -336 -139c-27.333 -30.667 -41 -64.667 -41 -102c0 -95.333 78 -157 234 -185zM3543 1266c14 -29.333 21 -49.9941 21 -61.9941c0 -49.333 -34.333 -74 -103 -74c-28 0 -45.667 5.66699 -53 17c-49.333 103.333 -74 199 -74 287
c0 87.333 22 174.666 66 261.999c156 311.333 452.333 525.666 889 642.999c111.334 30 235.334 45 372 45c330.666 0 496 -94.333 496 -283c100 44 191.334 66 274 66c160 0 274.666 -49.333 344 -148c27.334 -38.667 41 -90.334 41 -155.001
c0 -64 -13.666 -125.667 -41 -185c-88.666 -126.667 -234.166 -291.834 -436.5 -495.501s-347.5 -363.167 -435.5 -478.5c-2.66602 0 -4.33301 -0.666992 -5 -2c3.33398 -4.66699 13 -11.667 29 -21c26.666 -15.333 44.666 -23 54 -23c-116 -27.333 -248.666 -100 -398 -218
l-351 -303c-113.334 -94.667 -229.667 -147.334 -349 -158.001c-156.667 1.33301 -288.334 28.333 -395 81c-140.667 70 -211 175.333 -211 316c0 43.333 6.66699 76 20 98c78 204.667 222.667 331.667 434 381c82.667 19.333 173 29 271 29c180 0 372.334 -23.333 577 -70
l373 359c137.334 137.333 253.334 265.333 348 384c92 115.333 146.666 211.666 164 288.999c0 57.333 -57.334 86 -172 86c-191.334 0 -334.667 -50.333 -430 -151c-32 -30 -70 -68 -114 -114c-19.334 -24.667 -29 -49.667 -29 -75c0 -42 31.334 -75.333 94 -100
c27.334 -10.667 41 -23.667 41 -39c0 -11.333 -4.33398 -26.333 -13 -45c-15.334 -32.667 -46.667 -49 -94 -49c-80 0 -142.666 31.333 -188 94c-156 0 -234 61.333 -234 184c28 42.667 96 98.667 204 168l239 144c72.666 45.333 112.333 87.666 119 126.999
c-48.666 40.667 -89.333 66.667 -122 78c-42.666 14 -91 19.333 -145 16c-169.334 -10 -345.667 -56 -529 -138c-168.667 -76 -306.334 -174.667 -413 -296c-100.667 -114 -151 -235.667 -151 -365c0 -21.333 5.33301 -56.666 16 -105.999z" />
    <glyph glyph-name="underscore" unicode="_" horiz-adv-x="2867" 
d="M3060 1155c-204 -3.33301 -409.333 -14.001 -616 -32.001c-616.667 -53.333 -1232 -180.666 -1846 -381.999c-13.333 7.33301 -20 19.666 -20 36.999c0 68 101.667 160.667 305 278c88 50.667 176 93.334 264 128.001c566 125.333 1119 188 1659 188
c206.667 0 396.334 -8 569 -24c35.333 -3.33301 53 -14.333 53 -33c0 -26.667 -41.667 -59 -125 -97c-90 -40.667 -171 -61.667 -243 -63z" />
    <glyph glyph-name="grave" unicode="`" horiz-adv-x="2867" 
d="M-94 -512c130.667 50.667 234.669 119 312.002 205c67.333 74 131.666 181.667 192.999 323c53.333 124 97.666 206 132.999 246c59.333 67.333 141.666 101.666 246.999 102.999c82 1.33301 144.667 -16.667 188 -54c32.667 -28 49 -66 49 -114
c0 -10.667 -2.66699 -32.667 -8 -66c-54.667 -127.333 -152.667 -241.333 -294 -342c-86 -61.333 -220 -135.666 -402 -222.999c-139.333 -52 -278.666 -78 -417.999 -78zM1135 -512c265.333 179.333 446.333 376.665 543 591.998
c44.667 100.667 85.667 167.334 123 200.001c43.333 38.667 116 67 218 85c158.667 0 238 -56 238 -168c0 -10.667 -2.66699 -32.667 -8 -66c-69.333 -161.333 -203 -298.666 -401 -411.999c-75.333 -42.667 -174 -93.667 -296 -153c-138 -52 -277 -78 -417 -78z" />
    <glyph glyph-name="a" unicode="a" horiz-adv-x="1966" 
d="M1802 1192c-22 -14.667 -33 -37.998 -33 -69.998c0 -30 12.333 -80 37 -150s37 -122.333 37 -157c-21.333 -164 -127.333 -303.333 -318 -418c-106.667 -64.667 -286 -154.667 -538 -270c-186.667 -85.333 -376.334 -125 -569.001 -119
c-255.333 8 -397.333 125.333 -426 352c0 62.667 22.167 130.5 66.5 203.5s94.5 122.833 150.5 149.5c130 130.667 266.333 196 409 196c70 0 131.667 -24.333 185 -73c0 -61.333 -23.167 -120 -69.5 -176s-99.833 -91.667 -160.5 -107
c-42.667 -10.667 -85.667 -36.334 -129 -77.001c-47.333 -44.667 -71 -87.334 -71 -128.001s31.333 -61 94 -61c32 0 70.333 5.33301 115 16c68.667 0 168 19.667 298 59c118 36 213.667 72.333 287 109l106 54c66.667 34 116.334 65.667 149.001 95
c18.667 16 37.667 37.333 57 64c38 51.333 57 100.333 57 147c0 65.333 -28.667 139.333 -86 222c-16.667 46.667 -25 87.667 -25 123c0 76.667 27.667 138 83 184c52 43.333 117.333 65 196 65c138 0 267.667 -54.333 389 -163l4 -29z" />
    <glyph glyph-name="b" unicode="b" horiz-adv-x="2540" 
d="M340 569c51.333 88 123.003 159.33 215.003 213.997c113.333 66.667 228.666 118.334 345.999 155.001c374.667 117.333 657.667 218 849 302c240 106 430.667 241.667 572 407c11.333 13.333 17 27 17 41c0 57.333 -93 86 -279 86
c-30.667 0 -76.334 -2.16699 -137.001 -6.5s-106.334 -6.5 -137.001 -6.5c-48 0 -99 10.667 -153 32c-67.333 26 -101 59 -101 99c0 26.667 16.333 54 49 82c538.667 382 955 697.667 1249 947c396.667 336.667 732.667 688.667 1008 1056l-328 -168
c-240 -153.333 -486.333 -340.666 -739 -561.999l-371 -335c-167.333 -152 -312 -288.667 -434 -410l-781 -792c-308 -308.667 -578.667 -562 -812 -760c0 44.667 25.333 103.667 76 177l47 69c311.333 416.667 726 864.334 1244 1343l741 661l812 699
c229.333 196.667 538 405.667 926 627c105.334 41.334 187.334 62 246 62c114.666 0 172 -46.666 172 -140c-10.666 -63.334 -32.333 -115.334 -65 -156.001c-19.334 -24 -73.001 -81 -161.001 -171l-569 -557l-1188 -1074l-475 -413c-7.33301 -4 -11.333 -8.33301 -12 -13
c0 -10 119.667 -43.333 359 -100c252 -60.667 378 -150 378 -268c0 -96.667 -45 -167.667 -135 -213l-539 -232c-63.333 -28.667 -128 -63.334 -194 -104.001l8 -12c65.333 -20 161.333 -57 288 -111c36 -20.667 63 -52 81 -94c10.667 -24.667 16 -54.667 16 -90
c0 -81.333 -31.667 -169.666 -95 -264.999c-65.333 -99.333 -159.333 -184.666 -282 -255.999c-203.333 -118.667 -436.666 -206 -699.999 -262c-177.333 -38 -341.333 -57 -492 -57c-228 0 -387.667 50.667 -479 152l-37 59c-32.667 50.667 -49 102 -49 154
c0 58 15 126 45 204zM590.003 310.997c68.667 -62.667 171 -94 307 -94c288 0 584.333 93 889 279c69.333 61.333 105.333 93.333 108 96c39.333 40.667 63.333 81 72 121c-172 76 -325 114 -459 114c-183.333 0 -339 -16.333 -467 -49
c-97.333 -24.667 -195.333 -71 -294 -139c-120.667 -83.333 -181 -165.333 -181 -246c0 -26 8.33301 -53.333 25 -82z" />
    <glyph glyph-name="c" unicode="c" horiz-adv-x="3072" 
d="M2400 799c-16 48 -23.998 87.666 -23.998 118.999c0 41.333 13.667 75.333 41 102c58.667 56.667 123 99.334 193 128.001c104 42.667 266.333 76.334 487 101.001l70 -6c54.667 -4.66699 93.334 -17 116.001 -37c14.667 -13.333 22 -30.333 22 -51
c0 -19.333 -2.66699 -35.666 -8 -48.999c-46 -48 -119.667 -85.333 -221 -112l-250.5 -54c-83 -18 -146.833 -55.667 -191.5 -113c32 -55.333 48.333 -104.333 49 -147c2.66699 -132.667 -30 -235 -98 -307c-88.667 -122.667 -271 -227 -547 -313
c-135.333 -42.667 -233 -79 -293 -109c17.333 -36 28.333 -77 33 -123c0 -118.667 -31.667 -240.334 -95 -365.001c-90 -176.667 -204.333 -344 -343 -502c-316.667 -360.667 -684.334 -636.667 -1103 -828c-206 -94 -403.667 -151.667 -593 -173
c-159.333 0 -281 37 -365 111c-104 92 -156 205.333 -156 340c0 21.333 4.33301 56.666 13 105.999c22.667 128.667 68 269 136 421c147.333 331.333 354.666 661.333 621.999 990c140.667 172.667 269 310 385 412c161.333 142 346 266.667 554 374
c196.667 101.333 390 162.333 580 183c24.667 2.66699 61.667 4 111 4c18.667 -14.667 28 -31 28 -49c0 -28 -27.333 -55.333 -82 -82c-518 -174.667 -974.333 -495.667 -1369 -963c-212 -250.667 -375.333 -480 -490 -688c-109.333 -198 -164 -412.333 -164 -643
c4 -30.667 20 -79 48 -145c44 -64 125 -96 243 -96c203.333 19.333 405.333 83.333 606 192c116.667 63.333 275 161.666 475 294.999c296.667 199.333 511.334 418.333 644.001 657c76 138 123.667 291.667 143 461l-29 94c-174.667 0 -308.334 54.667 -401.001 164
c0 8 -2.83301 21.167 -8.5 39.5s-8.5 32.5 -8.5 42.5c0 18.667 5.66699 33.667 17 45c27.333 28 88.666 47.333 183.999 58c152.667 -68.667 300 -103 442 -103c34 0 64 1.33301 90 4c177.333 18 335.666 94.667 475 230c36 62 54 150.667 54 266
c-2.66699 26.667 -9.66699 66.334 -21 119.001z" />
    <glyph glyph-name="d" unicode="d" horiz-adv-x="3686" 
d="M3236 987c-16.667 8 -40 12.0029 -70 12.0029c-6.66699 0 -50.334 -5.33301 -131 -16c-248.667 -32.667 -457.667 -109 -627 -229c-114.667 -98 -172 -206 -172 -324c30.667 -34.667 76 -56.334 136 -65.001c30.667 -8.66699 64.667 -13 102 -13
c172 0 379.667 65.667 623 197l159 119c23.333 17.333 53.666 52 91 104c32.667 45.333 49 85.666 49 120.999c0 59.333 -53.333 90.666 -160 93.999zM635 -97.9971c-130 20 -235.329 70.332 -315.996 150.999c-318.667 -196.667 -485 -368.667 -499 -516
c0 -70 172 -134.667 516 -194c132 -22.667 238.333 -42.667 319 -60c130 -28 220.667 -50.667 272 -68c65.333 -20.667 119.666 -55.334 162.999 -104.001c10.667 -12 16 -27 16 -45c0 -53.333 -53.333 -121.666 -160 -204.999c-250 -195.333 -568.333 -362 -955 -500
c-182.667 -65.333 -364.334 -117.333 -545.001 -156c-201.333 -43.333 -367.666 -65 -498.999 -65s-231 48 -299 144c390 0 833.333 99 1330 297c476 190 725 332.667 747 428c-88.667 47.333 -242.334 86 -461.001 116c-251.333 34 -417.333 64.333 -498 91
c-112.667 38 -197 122 -253 252c-8.66699 15.333 -13 33 -13 53c0 91.333 52 181.333 156 270c169.333 202.667 463 452.667 881 750c167.333 118.667 386.666 254.667 657.999 408c269.333 151.333 473 227 611 227c49.333 0 91.666 -11 126.999 -33
c89.333 -103.333 207 -154 353 -152c78 0.666992 177.667 21.667 299 63l353 118c92 30.667 194 52.334 306 65.001c37.333 8 73 12 107 12c68.667 0 139.334 -13.333 212.001 -40c82.667 -30.667 141.667 -70.334 177 -119.001c28.667 -39.333 43.667 -83.333 45 -132
c2 -70 -41.5 -158.833 -130.5 -266.5s-205.5 -207.167 -349.5 -298.5c-457.333 -233.333 -827.333 -353.333 -1110 -360c-107.333 -2.66699 -211.666 3.66602 -312.999 18.999c-80 11.333 -151.667 40.333 -215 87c-43.333 32 -65 86.667 -65 164
c10 50.667 76.667 148.334 200 293.001c38 44.667 61.333 94.334 70 149.001c-4 26.667 -38.333 51.334 -103 74.001c-168 -3.33301 -331.667 -40 -491 -110l-541 -328c-44.667 -38.667 -78.334 -72.334 -101.001 -101.001c-24 -31.333 -35.333 -67.333 -34 -108
c1.33301 -36 38.333 -66 111 -90c120 -19.333 303 -29 549 -29c0 -56 -65.333 -100.667 -196 -134c-96.667 -25.333 -184.334 -38 -263.001 -38c-59.333 0 -115.333 7 -168 21z" />
    <glyph glyph-name="e" unicode="e" horiz-adv-x="1434" 
d="M1028 909c0 79.333 -38.3369 118.998 -115.004 118.998c-86.667 0 -165.167 -26.5 -235.5 -79.5s-120.166 -120.833 -149.499 -203.5c0 -13.333 1.33301 -22.666 4 -27.999c52 -37.333 78 -75.666 78 -114.999c0 -36 -26 -75.667 -78 -119
c-20 -6.66699 -47 -9.33398 -81 -8.00098c-103.333 4 -167.666 38.333 -192.999 103c7.33301 121.333 43.333 244.666 108 369.999c66.667 130 164.334 222.333 293.001 277c82.667 35.333 174.334 53 275.001 53c191.333 0 319.666 -71.333 384.999 -214
c24.667 -54.667 37 -105 37 -151c0 -15.333 -2.66699 -31.666 -8 -48.999c0 -157.333 -97.667 -379.666 -293 -666.999c-92.667 -136 -196 -259 -310 -369c-316 -306 -695.667 -747.667 -1139 -1325l-511 -649c-18 -32.667 -36.667 -92.667 -56 -180
c-19.333 -84 -41.666 -147.333 -66.999 -190c-28.667 -48.667 -79.334 -83.667 -152.001 -105c-8 -6 -24.333 -9 -49 -9c-43.333 0 -84.666 12.333 -123.999 37c-45.333 28 -68 62.333 -68 103c0 21.333 8 45.666 24 73c430.667 739.333 1009.67 1475.33 1737 2208
c55.333 56 135 149.667 239 281c299.333 380.667 449 659.667 449 837z" />
    <glyph glyph-name="f" unicode="f" horiz-adv-x="2580" 
d="M-1257 -2294c-175.333 0 -392.329 50.667 -650.996 152c-224.667 88.667 -417.334 202 -578 340l-13 114c0 32.667 7 60 21 82c5.33301 8.66699 17.666 13 36.999 13c6 0 15 -1.5 27 -4.5s20.667 -4.5 26 -4.5c328 -275.333 748.667 -413 1262 -413
c209.333 0 425 24.333 647 73c100.667 19.333 248 60.333 442 123c-8 0 9.66699 4.33301 53 13l357 151c314 132.667 587 296.667 819 492l233 196c13.333 24 40.666 54 81.999 90c58 78.667 141.667 198.667 251 360c76 124.667 114 246.334 114 365.001
c0 22 -2.66699 52.333 -8 91c-3.33301 16 -10.333 39 -21 69c-18.667 11.333 -39 17 -61 17c-14 0 -33 -4.33301 -57 -13c-26.667 -9.33301 -46 -14.666 -58 -15.999c-182.667 -128.667 -337 -193 -463 -193c-16 0 -42 3 -78 9c-50.667 8.66699 -88.667 48 -114 118
c-2.66699 7.33301 -4 36 -4 86c24 25.333 54 46 90 62l413 184c341.333 152 590 307.667 746 467c27.333 28 63.333 72.667 108 134c12.667 25.333 19 54.333 19 87c-18.667 64 -69.334 107.667 -152 131c-30.667 8.66699 -62 13 -94 13
c-108.667 0 -197.334 -34.333 -266.001 -103c-47.333 -89.333 -132 -213.666 -254 -372.999c-94.667 -88 -190.334 -161.667 -287.001 -221c-265.333 -164 -500 -281.333 -704 -352c-84.667 -19.333 -158.334 -29 -221.001 -29c-113.333 0 -210.333 27.333 -291 82
c-20.667 10.667 -41.334 37.667 -62.001 81c-10 20.667 -18 36 -24 46c0 150.667 9.33301 264 28 340l140 279c124 154 299 271.667 525 353c197.333 70.667 407.333 106 630 106c93.333 -49.333 209.333 -74 348 -74c70.667 0 176.5 9.5 317.5 28.5
s246.833 28.5 317.5 28.5c172.667 0 314.667 -45 426 -135c40.667 -40.667 61 -99.334 61 -176.001c-39.333 -109.333 -105.666 -209.333 -198.999 -300c-54.667 -53.333 -149.5 -128.333 -284.5 -225s-233.167 -178.334 -294.5 -245.001
c-16.667 -6.66699 -25 -20.334 -25 -41.001c106.667 -66.667 160 -187 160 -361c-33.333 -160 -140.666 -347.333 -321.999 -562l-165 -195c-152.667 -198 -337 -377 -553 -537l-127 -94c-114.667 -84.667 -306 -198 -574 -340c-268 -108 -517.667 -193.667 -749 -257
c-274.667 -74.667 -502.667 -112 -684 -112h-262zM565.004 356h4c152.667 0 344 83.333 574 250l82 78c92.667 89.333 139 178 139 266c-7.33301 32.667 -29.333 49 -66 49c-18.667 3.33301 -48.667 5 -90 5c-257.333 0 -477 -95.667 -659 -287
c-71.333 -94 -107 -176 -107 -246c0 -22.667 4.33301 -46 13 -70c40 -30 76.667 -45 110 -45z" />
    <glyph glyph-name="g" unicode="g" horiz-adv-x="1966" 
d="M-1024 -1204c48 -71.333 154.333 -120.667 319 -148h5c204.667 0 405.667 38.667 603 116c224.667 88 431.667 194 621 318c309.333 203.333 540.333 419.333 693 648c18 23.333 42.667 60 74 110c10.667 20.667 16 40 16 58c0 20 -11 37.667 -33 53
c-40 22 -86.333 33 -139 33c-20.667 0 -60.334 -3 -119.001 -9c-529.333 -105.333 -921.666 -206.333 -1177 -303c-414 -157.333 -707 -384 -879 -680c-11.333 -15.333 -17 -45.333 -17 -90c0 -38 11 -73.333 33 -106zM1667 1155c-8 28.667 -47.665 56.001 -118.998 82.001
c-30 5.33301 -76.333 8 -139 8c-192.667 0 -393.334 -47.667 -602.001 -143c-22 -22 -33 -50.667 -33 -86c5.33301 -16.667 40.333 -33.667 105 -51c22 -6 37.667 -19 47 -39c0 -48 -32.667 -101.333 -98 -160c-54 -48 -108.667 -83.667 -164 -107c-50 -8 -94 -12 -132 -12
c-142.667 0 -225.667 39.667 -249 119c0 92 8 152 24 180c34.667 61.333 87.667 118 159 170c35.333 25.333 67.666 47 96.999 65l117 72c289.333 164 558.333 246 807 246c216 0 364.667 -39.667 446 -119c76.667 -49.333 115 -129.666 115 -240.999
c0 -19.333 -2.66699 -51 -8 -95c-33.333 -102.667 -94 -194.334 -182 -275.001c-39.333 -36.667 -129 -103.334 -269 -200.001c-70 -36.667 -167 -101.334 -291 -194.001c-35.333 -36.667 -53 -82.334 -53 -137.001c60.667 0.666992 153.334 -7.66602 278.001 -24.999
c39.333 -11.333 72.333 -36 99 -74c13.333 -41.333 20 -79.333 20 -114c0 -99.333 -31.333 -203.333 -94 -312c-80 -138 -157.333 -250.333 -232 -337c-163.333 -188 -377.666 -362.333 -642.999 -523c-118 -70.667 -255 -145.667 -411 -225l-364 -131
c-190.667 -68.667 -409.334 -103 -656.001 -103h-4c-86.667 0 -180 20.333 -280 61c-94.667 39.333 -166.334 93 -215.001 161c-38.667 42 -59.334 114.333 -62.001 217c-1.33301 44.667 5.66699 89.667 21 135c47.333 141.333 120.333 267.666 219 378.999
c95.333 107.333 197 196.333 305 267c156 102 307.667 192.333 455 271c80.667 43.333 255.334 116.333 524.001 219c236 90 405.333 157.667 508 203c186.667 82.667 348 168.667 484 258c146 96 265.667 205.333 359 328c79.333 104.667 119 178.334 119 221.001
c0 8.66699 -2.66699 22.334 -8 41.001z" />
    <glyph glyph-name="h" unicode="h" horiz-adv-x="2253" 
d="M1450 1053c-42 12 -105.334 36.6689 -190.001 74.002c-31.333 18 -71.666 53.333 -120.999 106c-8.66699 23.333 -13 48 -13 74c0 76.667 27.333 132.667 82 168c48 56.667 126 86.667 234 90c72.667 -8.66699 160 -55.334 262 -140.001c254.667 82 450 158.667 586 230
c130.667 92 196 212 196 360c-26 14.667 -64.333 27.334 -115 38.001c-58 12 -97.333 22.333 -118 31c-27.333 11.333 -49.333 33.333 -66 66c-8 24.667 -12 49.334 -12 74c0 76.667 27.333 132.667 82 168c48 56.667 125.667 86.667 233 90c71.333 -8 159 -54.333 263 -139
c21.333 -5.33301 54 -8 98 -8c164.667 0 280.667 58.667 348 176c22 71.333 33 165.333 33 282c0 92.667 -7 170.667 -21 234c-12 52.667 -17.333 110 -16 172c2.66699 180 62.667 335.667 180 467c190.667 159.333 357.334 276.666 500 352
c328.666 173.334 659 285.334 991 336c47.334 7.33398 93.667 11.334 139 12c246 4 422.334 -42.334 529 -139c1.33398 -10 11.667 -30 31 -60c17.334 -28.666 26 -51 26 -67c0 -18 -8.33398 -30.333 -25 -37c-106.666 66 -267.666 99 -483 99
c-80 -7.33398 -181 -18.334 -303 -33c-720.667 -160 -1178 -429 -1372 -807c-5.33301 -65.333 -8 -111.666 -8 -139c0 -113.333 19.333 -255 58 -425c20.667 -92.667 31.334 -150.334 32 -173.001c2 -138.667 -48.667 -255.667 -152 -351s-222 -157.333 -356 -186l-189 -4
c0 -125.333 -25.667 -221 -77 -287c-99.333 -127.333 -194.333 -238.666 -285 -333.999c-147.333 -154 -357 -231 -629 -231c-22 -14.667 -33 -38 -33 -70c0 -30 12.333 -80 37 -150s37 -122.333 37 -157c-21.333 -164 -127.333 -303.333 -318 -418
c-106.667 -64.667 -286 -154.667 -538 -270c-186.667 -85.333 -376.334 -125 -569.001 -119c-255.333 8 -397.333 125.333 -426 352c0 62.667 22.167 130.5 66.5 203.5s94.5 122.833 150.5 149.5c130 130.667 266.333 196 409 196c70 0 131.667 -24.333 185 -73
c0 -61.333 -23.167 -120 -69.5 -176s-99.833 -91.667 -160.5 -107c-42.667 -10.667 -85.667 -36.334 -129 -77.001c-47.333 -44.667 -71 -87.334 -71 -128.001s31.333 -61 94 -61c32 0 70.333 5.33301 115 16c68.667 0 168 19.667 298 59c118 36 213.667 72.333 287 109
l106 54c66.667 34 116.334 65.667 149.001 95c18.667 16 37.667 37.333 57 64c38 51.333 57 100.333 57 147c0 65.333 -28.667 139.333 -86 222z" />
    <glyph glyph-name="i" unicode="i" 
d="M139 451c8.66699 110 49.6709 178.003 123.004 204.003c17.333 0 36.666 10 57.999 30c10 9.33301 18 16 24 20c275.333 229.333 597.333 391.333 966 486c182 46.667 338 68.667 468 66c251.333 -5.33301 378.333 -57 380.999 -155c4 -140 -55.667 -283 -179 -429
c-126 -150 -271.333 -287 -436 -411c-79.333 -60 -151.666 -90 -216.999 -90c-38 0 -57 20.333 -57 61c0 149.333 71 298.333 213 447l54 57c64.667 68 97 121.333 97 160c-49.333 35.333 -109.333 53 -180 53c-146.667 0 -303.334 -36.667 -470.001 -110
c-173.333 -76 -317 -173 -431 -291c-24.667 -25.333 -37 -50 -37 -74l29 -24c69.333 -21.333 117 -39 143 -53c49.333 -26 83.666 -61.667 102.999 -107c0 -90 -31.667 -157 -95 -201c-96 -66.667 -220 -99.334 -372 -98.001
c-150.667 1.33301 -253.334 73.666 -308.001 216.999c-8 20.667 -12 41 -12 61c0 83.333 45 143.666 135 180.999z" />
    <glyph glyph-name="j" unicode="j" horiz-adv-x="2458" 
d="M246 803c-28 0 -54.167 12.166 -78.5 36.499s-36.5 50.5 -36.5 78.5c6 24 43.333 48.667 112 74c32.667 12 52.667 20 60 24c28.667 0 80.334 -0.666992 155.001 -2l152 -2c34.667 0 103 6.66699 205 20c166 16 287 40.667 363 74c56.667 24.667 118 65.334 184 122.001
c58 50 129.667 130.667 215 242c133.333 173.333 223.333 297.666 270 372.999c74 119.333 111 228.666 111 327.999c27.333 50 86 81.333 176 94c65.333 -3.33301 98 -58 98 -164c0 -102 -23 -197.333 -69 -286c-49.333 -94.667 -115.333 -187.667 -198 -279
c-28.667 -29.333 -73.334 -78.333 -134.001 -147c-46.667 -57.333 -91.667 -121.666 -135 -192.999c-30 -49.333 -48 -106.666 -54 -171.999c60 -30 143.333 -45 250 -45h160c154.667 0 251.667 -26 291 -78c0 -82 -32.667 -124.333 -98 -127
c-51.333 -13.333 -119.666 -20 -205 -20c-60 0 -149.5 4.66699 -268.5 14s-208.5 14 -268.5 14c-157.333 0 -276 -31.333 -356 -94c-54 -34 -133.667 -87.333 -239 -160c-37.333 -29.333 -75 -67.333 -113 -114c58.667 0 136.667 9.66699 234 29
c106.667 20.667 174.667 31.334 204 32.001c59.333 1.33301 108.333 -4 147 -16c33.333 -10.667 50 -38 50 -82c-0.666992 -6.66699 -3.66699 -23 -9 -49c-36.667 -91.333 -133.667 -219.666 -291 -384.999c-76 -64 -230.333 -216 -463 -456l-300 -312l-277 -289
c-812 -870.667 -1463.33 -1601 -1954 -2191c-56.667 -64.667 -137.667 -164.667 -243 -300c-35.333 -52 -64.666 -105 -88 -159c-17.333 -92.667 -83 -139 -197 -139c-128.667 0 -193 79 -193 237c23.333 49.333 68.333 92.666 135 130c43.333 24.667 73.666 45.667 91 63
l291 286c353.333 444 666 819.667 938 1127l483 520l265 287l300 317c88 94 164.333 180.667 229 260l549 570c54 52.667 129 136.667 225 252c24.667 37.333 37 81.666 37 132.999c-32 10.667 -59 16 -81 16c-82 0 -202.333 -27.333 -361 -82l-151 -53l-132 -66
c-2 -0.666992 -45.333 -19.334 -130 -56.001c-52.667 -22.667 -98 -34 -136 -34c-14 0 -31.667 2.66699 -53 8c-40.667 0 -80.667 10.333 -120 31c-15.333 8 -23 19.667 -23 35c81.333 70.667 209 152 383 244c239.333 127.333 376 201.666 410 222.999
c92 56.667 167.667 126.334 227 209.001c-16 18.667 -55.667 28 -119 28c-28.667 0 -71.667 -2 -129 -6s-100.333 -6 -129 -6c-79.333 0 -135.333 11 -168 33z" />
    <glyph glyph-name="k" unicode="k" horiz-adv-x="1843" 
d="M-373 -385c-18.667 27.333 -27.999 54.6689 -27.999 82.002c0 60.667 56.667 124.334 170 191.001c44 25.333 77.333 46.333 100 63c261.333 190.667 492 375.667 692 555c177.333 159.333 378 356.666 602 591.999l439 468c67.333 80 113.666 145 138.999 195
c34 52 88.333 126.333 163 223c26.667 29.333 54.334 44 83.001 44c25.333 0 51 -15.333 77 -46c0 -60 -32.667 -156.667 -98 -290c-93.333 -190.667 -232.333 -394 -417 -610c-196 -228.667 -410.667 -443.334 -644 -644.001c-36 -24 -85 -65.333 -147 -124
c-16.667 -22 -25 -49 -25 -81c40 -24 97.333 -36 172 -36c30.667 0 76.5 2.66699 137.5 8s106.833 8 137.5 8c112.667 0 198.667 -31.333 258 -94c8 -12.667 12 -27.667 12 -45c0 -20.667 -20.333 -65.667 -61 -135c-70 -58.667 -221.667 -208 -455 -448l-309 -320
l-277 -289l-1000 -1089l-954 -1103c-56.667 -64.667 -137.667 -164.667 -243 -300c-35.333 -51.333 -64.666 -104 -87.999 -158c-16 -93.333 -81.667 -140 -197 -140c-128.667 0 -193 79.333 -193 238c23.333 49.333 69 93.333 137 132c44 24.667 73.667 44.667 89 60
l291 287c353.333 444 666 819.667 938 1127l483 520l308 332l298 313c58 62 121 135 189 219c39.333 36 90.666 87.667 153.999 155l216 231c91.333 98 150.666 159 177.999 183c46.667 40.667 70 75 70 103c0 30 -32.667 45 -98 45c-13.333 0 -38.333 -3.66699 -75 -11
c-12.667 -2.66699 -32.667 -7.33398 -60 -14.001c-111.333 -14.667 -295.666 -83.667 -552.999 -207c-266.667 -126.667 -470.334 -190 -611.001 -190z" />
    <glyph glyph-name="l" unicode="l" horiz-adv-x="4710" 
d="M1974 909c72 -57.333 136.331 -85.998 192.998 -85.998c26.667 0 54 4.33301 82 13c70.667 4.66699 201.667 46.667 393 126c217.333 90.667 379.666 136 487 136c70 0 173.833 -11 311.5 -33s241.5 -33 311.5 -33c111.333 19.333 226.5 56.5 345.5 111.5
s224.834 83.5 317.5 85.5c163.334 2.66699 289 -27.333 377 -90c63.334 -45.333 95 -92 95 -140c0 -83.333 -18 -151 -54 -203c-47.334 -68.667 -106 -137.334 -176 -206.001c-44 -43.333 -131.666 -104 -263 -182c-121.334 -72 -197.334 -118.667 -228 -140
c-82.667 -56.667 -148.334 -116 -197 -178c-18.667 -90 -87 -135 -205 -135c0 211.333 132.667 393 398 545c202.666 116 322.666 237.333 360 364c5.33398 8.66699 8 23.667 8 45c0 81.333 -71 117 -213 107c-82 -6 -193 -49.333 -333 -130l-162 -91
c-100 -54.667 -157.333 -86.334 -172 -95.001c-67.333 -40 -119 -78.333 -155 -115c-38.667 -40 -58 -86.333 -58 -139c32 -18 74 -44.333 126 -79c16.667 -14.667 25 -38.667 25 -72c-11.333 -87.333 -77 -131 -197 -131c-2.66699 0 -69.334 16.333 -200 49
c-29.333 0 -72.666 -7.5 -130 -22.5c-57.333 -15 -101.333 -22.5 -132 -22.5c-24 2.66699 -58.333 9.66699 -103 21c-27.333 10 -53.333 31.667 -78 65c7.33301 60 87 133.333 239 220s228 156.667 228 210c0 42.667 -31.333 89 -94 139c-34 14 -80.333 21 -139 21
c-74.667 0 -155.334 -11 -242 -33c-131.333 -33.333 -259 -97.333 -383 -192c-118.667 -90.667 -178 -196 -178 -316c9.33301 -20 59 -41 149 -63c70 -17.333 105 -44 105 -80c0 -20 -5.33301 -39.333 -16 -58c-28 -27.333 -65 -41 -111 -41c-50 0 -125.667 17.333 -227 52
s-178.666 51.667 -231.999 51c-38 -0.666992 -98.667 -18 -182 -52s-145.333 -51 -186 -51c-46.667 0 -79.667 20.667 -99 62c4 49.333 32.667 93 86 131c84.667 30.667 206.667 88.334 366 173.001c48.667 35.333 83.667 82.666 105 141.999
c0 75.333 -73.333 133.333 -220 174c-104.667 28.667 -208.667 43 -312 43c-40 0 -68.667 -1.33301 -86 -4c-257.333 -39.333 -523.666 -203 -798.999 -491c-38 -40 -57 -78.333 -57 -115c0 -57.333 56.333 -104.666 169 -141.999c45.333 -15.333 72.333 -25.333 81 -30
l184 -94c0 -60 -38.333 -90 -115 -90c-54.667 0 -140.334 31.667 -257.001 95c-124.667 67.333 -213.667 101 -267 101c-20 0 -40.333 -4 -61 -12c-48.667 -19.333 -105 -60.666 -169 -123.999c-70.667 -69.333 -106 -126.333 -106 -171c0 -19.333 5.66699 -34.333 17 -45
c154.667 -82 379.667 -123 675 -123h168c150 0 258 -5.33301 324 -16c90.667 -9.33301 223.334 -33.333 398.001 -72c54.667 -19.333 99.334 -50 134.001 -92c0 -76.667 -24.333 -136.667 -73 -180c-275.333 -245.333 -605.666 -452 -990.999 -620
c-410 -178.667 -787 -269.667 -1131 -273c-101.333 -0.666992 -168.333 21 -201 65c-22 23.333 -33 55 -33 95c0 54 23.333 88 70 102c106 -46.667 222 -68.667 348 -66c82 2 177.667 18.667 287 50c160.667 47.333 359 131.666 595 252.999l327 169l107 70
c72.667 47.333 118.667 104.333 138 171c-6.66699 32.667 -36.334 58 -89.001 76c-26 9.33301 -45.333 16.666 -58 21.999c-41.333 11.333 -152 18.333 -332 21c-115.333 2 -185 2 -209 0c-32.667 -2.66699 -80.334 -2.66699 -143.001 0
c-128.667 5.33301 -233 18.666 -313 39.999c-88 24.667 -169.333 71.334 -244 140.001c-35.333 52 -53 105.333 -53 160c0 22.667 4 48.667 12 78c125.333 274.667 333 525 623 751c94 73.333 256.333 190.333 487 351c244 155.333 488.333 233 733 233
c185.333 0 345 -53.333 479 -160z" />
    <glyph glyph-name="m" unicode="m" 
d="M524 279c160.667 0 302.668 45.001 426.001 135.001c136.667 99.333 229.667 200.333 279 303c-137.333 32.667 -320.333 49 -549 49c-166.667 -16 -285.334 -69.333 -356.001 -160c-30 -28.667 -45 -68.334 -45 -119.001c0 -108 81.667 -177.333 245 -208zM2179 2216
c-206 0 -359.001 -55.9961 -459.001 -167.996c0 -82 -28.667 -140.667 -86 -176c-49.333 -41.333 -128.333 -62 -237 -62c-64 22.667 -97 65 -99 127c-2 63.333 40.333 141.333 127 233.999c95.333 101.333 216 183.333 362 246s289 94 429 94
c232.667 0 392.334 -65.667 479.001 -197c30 -45.333 45 -102.666 45 -171.999c0 -50 -16.333 -121 -49 -213c-87.333 -132 -295.333 -377 -624 -735c-125.333 -136.667 -227.333 -260.334 -306 -371.001c-2.66699 0 -4 -0.666992 -4 -2c3.33301 -4.66699 14 -12 32 -22
c28.667 -16.667 48 -25 58 -25c-156 -38 -352.667 -173.667 -590 -407c-115.333 -112.667 -204 -191 -266 -235c-108 -76.667 -215.667 -120.667 -323 -132c-172.667 1.33301 -315.667 33.666 -429 96.999c-142.667 79.333 -214 198.666 -214 357.999
c0 45.333 5.33301 80.666 16 105.999c78 186.667 235 324.667 471 414c86 22 181.667 33 287 33c236 0 453 -26 651 -78c560 560 863 956 909 1188c0 65.333 -60 98 -180 98z" />
    <glyph glyph-name="n" unicode="n" horiz-adv-x="2458" 
d="M963 700c-22 14.667 -32.999 36.667 -32.999 66c0 16.667 6.66699 42.667 20 78l172 127c313.333 174.667 598.666 262 855.999 262c112 0 214.667 -15 308 -45c118.667 -51.333 210 -128 274 -230c10.667 -42.667 16 -74 16 -94c0 -146 -128.333 -300.333 -385 -463
c-430 -272 -864 -408 -1302 -408c-58 0 -116.667 2.33301 -176 7l-463 37l123 205c134.667 -54.667 280.667 -82 438 -82c232 0 492.667 62.667 782 188l291 164c172 120.667 258 223 258 307c0 25.333 -5.33301 47.333 -16 66c-89.333 62.667 -197.333 94 -324 94
c-76.667 0 -160 -9.66699 -250 -29c-186 -40 -382.333 -123.333 -589 -250zM5857 2683c-43.334 60.667 -69.668 96.667 -79.001 108c-31.334 38.667 -64 68.334 -98 89c-36.666 21.333 -81.333 32 -134 32c-197.334 38.667 -407.667 58 -631 58
c-290.666 0 -621.332 -25.333 -991.999 -76c-497.333 -68 -987 -180.667 -1469 -338c-189.333 -176 -406.333 -389.667 -651 -641l-691 -712c-486 -502 -907.333 -900.333 -1264 -1195h-4c-20.667 0 -37 12.333 -49 37c212 322 573.333 735.667 1084 1241l532 533
c196.667 204 362.667 392.333 498 565c-159.333 -45.333 -305.666 -113.666 -438.999 -204.999l-491 -336c59.333 157.333 167.333 299.333 324 425.999c394 318.667 960.333 561.667 1699 729c556 126 1109 189 1659 189c199.334 0 389.334 -8.33301 570 -25
c120 -11.333 221 -23.333 303 -36c58.666 -9.33301 123 -31 193 -65c73.334 -36 127.667 -85.667 163 -149c28.666 -51.333 45 -100.333 49 -147c-4 -68.667 -15 -103 -33 -103c-8 0 -24.334 7 -49.001 21z" />
    <glyph glyph-name="o" unicode="o" horiz-adv-x="2601" 
d="M2219 264c-102 -79.333 -174.002 -126.331 -216.002 -140.998c-94 -61.333 -195 -97 -303 -107c4.66699 127.333 62 219 172 275l164 57c133.333 152 200 303.667 200 455c-18 62 -69.667 104.333 -155 127c-30 8 -68.333 12 -115 12c-202 0 -353.667 -68.333 -455 -205
c-40.667 -54.667 -61 -123 -61 -205c83.333 -32.667 124.333 -68 123 -106c-1.33301 -54 -41 -106 -119 -156c-50.667 -24.667 -95.667 -37 -135 -37c-30.667 0 -71.667 8.33301 -123 25c-31.333 35.333 -73.666 53 -126.999 53c-21.333 0 -44.666 -4 -69.999 -12
c-52 -38 -99.667 -57 -143 -57c-52 0 -101 23 -147 69c0 14.667 1.33301 28.667 4 42l4 20c19.333 19.333 53.333 34.333 102 45c216 117.333 324 253.666 324 408.999c-50.667 11.333 -110.667 17 -180 17c-274 0 -517.333 -84.667 -730 -254c-68 -68 -102 -135 -102 -201
c5.33301 -17.333 16.333 -43.333 33 -78c43.333 22 93.666 33 150.999 33c81.333 0 155.333 -24.667 222 -74c24 -28.667 36 -75 36 -139c-40 -87.333 -131.333 -131 -274 -131h-8c-59.333 0 -115.333 35.333 -168 106c-49.333 66.667 -86.333 142 -111 226
c-8 27.333 -12 56 -12 86c0 72 19.333 145.667 58 221c40.667 78 87 138 139 180c214 172 463.667 258 749 258c150.667 0 287.334 -23 410.001 -69c24.667 -22 54.667 -33 90 -33c38 0 81.667 13.667 131 41c104 58 205.667 106.667 305 146c84 33.333 169.333 50 256 50
c66 0 120.667 -9.33301 164 -28c111.333 -48 187.666 -139.667 229 -275c14 -46 21 -92.333 21 -139c0 -96.667 -30 -185.334 -90 -266.001s-141 -160.667 -243 -240z" />
    <glyph glyph-name="p" unicode="p" 
d="M356 -4c-69.333 0.666992 -140.501 28.501 -213.501 83.501s-120.5 122.833 -142.5 203.5c-5.33301 20 -8 43 -8 69c0 132 46.333 252.333 139 361c86 100.667 179.667 190.334 281 269.001c88.667 68 187.667 105.333 297 112c0 -56 -59.667 -165 -179 -327
c-126.667 -172 -190 -310.333 -190 -415c17.333 -52 68 -78 152 -78c30 0 70.667 5.66699 122 17c248 78 443.333 154.333 586 229c131.333 94 197 214.333 197 361c-54 12.667 -131.333 35 -232 67c-27.333 10.667 -49.666 33.334 -66.999 68.001
c-8.66699 26 -13 50.667 -13 74c0 77.333 27.333 133 82 167c46.667 56 124.667 86.333 234 91c72.667 -8.66699 160 -55.334 262 -140.001c22 -5.33301 54.667 -8 98 -8c165.333 0 281.333 58.667 348 176c22 69.333 33 163.666 33 282.999c0 95.333 -6.66699 173 -20 233
c-12 55.333 -17.667 112.666 -17 171.999c2.66699 178.667 63 334.334 181 467c189.333 160 355.666 277.667 499 353c324 170.667 654.667 282.334 992 335c24 4 70.333 8.33301 139 13c244.666 4 420.666 -42.667 528 -140c0.666016 -6 10.5 -24.667 29.5 -56
s28.5 -54.666 28.5 -70c0 -18 -8.33398 -30.333 -25 -37c-113.334 68.667 -274.334 101.334 -483 98c-23.333 -0.666992 -124.666 -11.667 -304 -33c-720.667 -158.667 -1178 -427.667 -1372 -807c-5.33301 -65.333 -8 -111.666 -8 -138.999c0 -114 19.333 -254.667 58 -422
c20.667 -93.333 31.334 -152 32 -176c2 -138.667 -49 -255.834 -153 -351.501s-222.333 -157.5 -355 -185.5l-188 -4c0 -124.667 -26 -220 -78 -286c-84 -106.667 -197.667 -210.667 -341 -312c-134 -94.667 -281.667 -170.667 -443 -228
c-166 -59.333 -328 -88.333 -486 -87z" />
    <glyph glyph-name="q" unicode="q" 
d="M197 -70c5.33301 -8 8.00195 -17.3301 8.00195 -27.9971c0 -13.333 -28.667 -19 -86 -17c-60.667 2 -112.667 24 -156 66c-40.667 38.667 -61 120.667 -61 246c17.333 132 110 242.333 278 331c145.333 76.667 291.333 115 438 115c108 0 224.333 -21.667 349 -65
l180 -86c108.667 98 268 261 478 489l267 285l429 480c148 159.333 278.333 284.666 391 375.999l262 213c31.333 22.667 79.666 54 145 94c22 10.667 48.667 16 80 16c16.667 -12.667 25 -29 25 -49c0 -58 -36.667 -132.667 -110 -224
c-35.333 -43.333 -145 -169.333 -329 -378l-1720 -1950l-711 -769l-1243 -1422c-56 -64.667 -136.667 -164.667 -242 -300c-37.333 -54.667 -67.333 -107.667 -90 -159c-16.667 -92.667 -82 -139 -196 -139c-128.667 0 -193 79.333 -193 238
c24 49.333 68.667 92.333 134 129c44 24.667 74.667 45.667 92 63l290 287c74 92.667 208.667 253 404 481l695 808l442 521c243.333 295.333 373 473 389 533c0 42.667 -12.333 72.667 -37 90c-68.667 59.333 -175.334 90.666 -320.001 93.999
c-80.667 2 -155.334 -20 -224.001 -66c-66 -44 -99 -101.333 -99 -172c0 -44.667 13.667 -88.334 41 -131.001z" />
    <glyph glyph-name="r" unicode="r" horiz-adv-x="2540" 
d="M2216 1139c134 0 248.667 -53.3301 344 -159.997c32.667 -48.667 49 -99.334 49 -152.001c0 -134 -107.667 -274.333 -323 -421c-308.667 -210.667 -505.334 -336.334 -590.001 -377.001c-12 -2 -35 -10 -69 -24c-29.333 -11.333 -53 -17 -71 -17
c-18.667 0 -28 10.667 -28 32c49.333 108.667 184 246.667 404 414c115.333 87.333 200.333 161 254.999 221c41.333 57.333 62 101 62 131c0 18.667 -4.33301 33.667 -13 45c-12.667 49.333 -64.334 74 -155.001 74c-141.333 0 -308 -61.333 -500 -184
c-80 -51.333 -136 -107.333 -168 -168c52 -18.667 78 -58.334 78 -119.001c0 -76.667 -79.333 -115 -238 -115c-11.333 -2 -38 -10.667 -80 -26c-36.667 -13.333 -61.667 -19.666 -75 -18.999c-49.333 2 -105 16.667 -167 44c-74.667 33.333 -112 70.666 -112 111.999
c0 26.667 22 51.334 66 74.001l118 42c88 32 132 83.333 132 154c-19.333 60 -63 99.667 -131 119c-264 0 -489.333 -104 -676 -312c-74 -82 -111 -144.667 -111 -188l25 -36c87.333 35.333 154 53 200 53c92 0 156.333 -28.667 193 -86
c10.667 -16.667 16 -37.334 16 -62.001c0 -50 -24.667 -95 -74 -135c-52 -42 -125.667 -63.667 -221 -65c-119.333 -2 -184.666 54 -195.999 168c-33.333 2 -67.333 16.833 -102 44.5s-56.667 57.834 -66 90.501c-5.33301 18 -8 30.333 -8 37
c0 73.333 32.667 119.666 98 138.999c42 119.333 127.667 233.333 257 342c134.667 112.667 263.334 189.667 386.001 231c100 33.333 198.333 50 295 50c178 0 305 -52 381 -156l33 -62v-8l20 -53c106.667 64.667 271.334 154 494.001 268c96.667 40 186 60 268 60z
M5997 3269c14.666 5.33301 31 8.00098 49 8.00098c30 0 45 -13.667 45 -41c0 -30 -13.666 -72.333 -41 -127c-129.334 -133.333 -802 -420.666 -2018 -862c-1200.67 -436.667 -2254 -784.334 -3160 -1043c-16 0 -24 5.66699 -24 17c0 26 13.167 57.833 39.5 95.5
s51.5 60.167 75.5 67.5c540.667 163.333 1456.33 499 2747 1007l1503 591c462.666 181.333 724 277 784 287z" />
    <glyph glyph-name="s" unicode="s" horiz-adv-x="1802" 
d="M2556 3326c82 0 123 -31.333 123 -94c0 -22.667 -15 -58.334 -45 -107c-156 -254 -311.333 -469.333 -466 -646c-139.333 -159.333 -354 -385.666 -644 -678.999c-295.333 -298.667 -510.333 -524.667 -645 -678c-169.333 -191.333 -323 -401.333 -461 -630
c-32.667 -54 -49 -102 -49 -144c0 -51.333 35 -80 105 -86c26 -2.66699 41.333 -4 46 -4c248.667 5.33301 542.334 86 881.001 242c27.333 12.667 41 31.667 41 57c0 44.667 -24.667 74.667 -74 90c-32.667 6 -80 19.333 -142 40c-16.667 7.33301 -28 24 -34 50
c0 52 13.667 94.333 41 127c20.667 24.667 61.667 37 123 37c44 0 86.333 -9.66699 127 -29c130 -62 207.667 -142.333 233 -241c8.66699 -22.667 13 -44.667 13 -66c0 -96.667 -54.667 -181.334 -164 -254.001c-292 -193.333 -656.667 -297 -1094 -311
c-169.333 -5.33301 -300.333 38.334 -393 131.001c-54.667 54.667 -82 123 -82 205c0 25.333 4 48.666 12 69.999c215.333 414.667 618 904 1208 1468c303.333 290 517.666 501.667 642.999 635c228.667 244 416 479.333 562 706c4.66699 28.667 21.167 54.334 49.5 77
c28.333 22.667 56.833 34 85.5 34z" />
    <glyph glyph-name="t" unicode="t" horiz-adv-x="2253" 
d="M16 -684c34 -19.333 73.666 -29 118.999 -29c32 0 101.667 11 209 33c26 44.667 84.667 118 176 220c80 89.333 133.333 166.333 160 231c0 70.667 -23.333 106 -70 106c-48 0 -116.333 -36 -205 -108c-73.333 -59.333 -130.666 -116 -171.999 -170zM1475 -123
c-40 32.667 -90.667 49.001 -152 49.001c-74.667 0 -151.667 -23.667 -231 -71c-87.333 -51.333 -153.666 -101.333 -198.999 -150c-101.333 -108.667 -152 -197.334 -152 -266.001c205.333 10.667 408.666 98 609.999 262c82.667 67.333 124 126 124 176zM2286 1483
c-41.333 13.333 -85.334 20.001 -132.001 20.001c-36.667 0 -80.667 -6.33301 -132 -19l-60 -14c-234 -42.667 -499 -166.667 -795 -372c-190.667 -183.333 -286 -332.333 -286 -447c0 -22.667 7 -56 21 -100c16 -50.667 32 -76 48 -76c27.333 0 41 68.333 41 205
c56 -22.667 94.333 -97.667 115 -225c223.333 120.667 499 312 827 574c134.667 107.333 229 187.666 283 240.999c24.667 22.667 59.334 58.667 104.001 108c12.667 18 19 35.333 19 52c0 24 -17.667 41.667 -53 53zM192.998 -1200
c-146 -251.333 -316.671 -492.671 -512.004 -724.004c-381.333 -451.333 -778.333 -837.333 -1191 -1158c-171.333 -132.667 -289.333 -212.667 -354 -240c-49.333 -23.333 -124.333 -55.333 -225 -96c-44 -14.667 -82.333 -22.334 -115 -23
c-117.333 -2.66699 -176 44 -176 140c0 44.667 14.333 98.334 43 161l43 93c63.333 136.667 142.666 269.334 238 398.001l311 400l879 972l334 368c-111.333 146 -169 293.333 -173 442c-4.66699 176.667 43.333 324 144 442c88.667 104 188.334 160 299.001 168l4 -8
c-180 -261.333 -270 -483.666 -270 -666.999c6.66699 -34 28.834 -65.167 66.501 -93.5s74.167 -42.5 109.5 -42.5c15.333 0 30.333 3 45 9l196 212l209 232l207 225c88.667 94 156.334 161.667 203.001 203l201 180c-44 48 -66 108 -66 180
c-5.33301 33.333 -8 59.333 -8 78c0 186 130.667 383.333 392 592c106.667 84.667 201.334 151 284.001 199c310 180 629.333 270 958 270c94.667 0 178 -9.66699 250 -29c31.333 -12 75.333 -35.333 132 -70c16 -14.667 25.333 -35 28 -61c0 -82 -19.333 -148.667 -58 -200
c-60.667 -80 -164.334 -174.333 -311 -283l-323 -231c-126 -84 -307.667 -218.667 -545 -404c32.667 -29.333 49 -64.666 49 -105.999c0 -55.333 -11 -133.333 -33 -234c16.667 -7.33301 52 -11.666 106 -12.999c17.333 -0.666992 46.333 -1.66699 87 -3
c58 -0.666992 101.667 -10.334 131 -29.001c35.333 -22 53 -52 53 -90c0 -66 -50.667 -153.333 -152 -262c-128.667 -138 -354 -262.667 -676 -374c-172 -59.333 -296 -103.666 -372 -132.999c-82 -30.667 -155.667 -70.667 -221 -120c-76 -58 -149.667 -148 -221 -270z
M-2011.01 -3133c111.333 25.333 215.335 70.667 312.002 136.001c131.333 89.333 252.666 181.666 363.999 277c253.333 217.333 503 459.666 749 727c464.667 504 697 842 697 1014c-30 17.333 -60 32.666 -90 45.999s-69.667 20 -119 20c-142 -20 -246 -81.667 -312 -185
c-80 -71.333 -264.333 -271 -553 -599c-114.667 -136.667 -293.334 -333 -536.001 -589l-135 -167c-139.333 -174 -239 -313.333 -299 -418c-52 -90.667 -78 -178 -78 -262z" />
    <glyph glyph-name="u" unicode="u" horiz-adv-x="2171" 
d="M614 328c-122.667 3.33301 -183.999 33.335 -183.999 90.002c0 6 1.33301 14.833 4 26.5s4 20.5 4 26.5c17.333 50 65 112.667 143 188l183 166c54.667 51.333 82.667 102.666 84 153.999c0.666992 28 -14.333 92 -45 192c-82 164 -196.667 272 -344 324
c-90 4.66699 -135 28 -135 70c72.667 38 173.667 55.667 303 53c55.333 -1.33301 122 -13.666 200 -36.999c214 -86.667 352 -235.334 414 -446.001c2.66699 -24.667 4 -61.667 4 -111c0 -76.667 -1.33301 -135.334 -4 -176.001c3.33301 -14 13 -21 29 -21
c27.333 0 72.333 16.667 135 50c118 62.667 215.667 109.334 293 140.001c88.667 34.667 176.667 50.667 264 48c52.667 -1.33301 101.667 -15 147 -41c32.667 -9.33301 69.667 -43.333 111 -102c8 -16.667 12 -36 12 -58c0 -66.667 -26 -119.667 -78 -159
c-622 -470.667 -1181.33 -953.667 -1678 -1449c-238 -236.667 -457.333 -474.667 -658 -714c-214 -254.667 -389.667 -486.667 -527 -696c-18 -27.333 -36.667 -86.333 -56 -177c-36 -167.333 -110 -268.333 -222 -303c-17.333 -5.33301 -32.333 -8 -45 -8
c-46 0 -88.667 12 -128 36c-46 28 -69 63.667 -69 107c0 26 8.33301 50.667 25 74c224 380.667 555.333 812.334 994 1295c215.333 237.333 442.666 468 681.999 692c252.667 237.333 490 440.666 712 609.999l185 137c116.667 87.333 192.667 190.333 228 309
c0 44 -28.667 66 -86 66c-30.667 0 -60.667 -4 -90 -12c-113.333 -72.667 -290.333 -170.334 -531 -293.001c-92.667 -36.667 -184.667 -53.667 -276 -51z" />
    <glyph glyph-name="v" unicode="v" horiz-adv-x="1556" 
d="M-1053 -2634c-16.667 -5.33301 -33.001 -8.00391 -49.001 -8.00391c-46 0 -88.667 12 -128 36c-45.333 28 -68 63.667 -68 107c0 21.333 8 46 24 74c431.333 746.667 1010.33 1482.67 1737 2208c196.667 196.667 295 318 295 364c0 18 -9.66699 29 -29 33
c-69.333 0 -200.666 -24.333 -393.999 -73c-85.333 -21.333 -131.333 -32.333 -138 -33c-34.667 0 -68.334 10 -101.001 30c-36.667 22.667 -55 50.667 -55 84c0 30 17.667 54.667 53 74c21.333 19.333 109 48.333 263 87l301 74c76 21.333 149 56.333 219 105
c130 90 201 204.667 213 344c-30.667 71.333 -107.334 107 -230.001 107c-20.667 0 -46.667 -2.66699 -78 -8c-21.333 -3.33301 -32 -17 -32 -41c0 -15.333 6.66699 -34.666 20 -57.999c-10 -103.333 -85 -155 -225 -155c-40.667 0 -76.167 14.5 -106.5 43.5
s-45.5 63.5 -45.5 103.5c0 20 4.33301 42 13 66c43.333 54.667 82.666 92.667 117.999 114c110.667 66.667 239 112 385 136c98.667 16 194.334 24 287.001 24c92 -9.33301 163 -29.666 213 -60.999c82.667 -71.333 122.334 -161.666 119.001 -270.999
c-1.33301 -52 -12.333 -94.333 -33 -127c-15.333 -24 -111 -115.333 -287 -274c-42.667 -38 -74 -80.333 -94 -127c16.667 -32 23.667 -74.333 21 -127c-6 -132 -95 -264.333 -267 -397c-157.333 -121.333 -315.666 -269.666 -474.999 -444.999
c-173.333 -190 -420.333 -508.667 -741 -956c-182 -254 -325.333 -445 -430 -573c-24.667 -41.333 -45.667 -103 -63 -185c-18 -84 -36.333 -142 -55 -174c-32 -56.667 -84.333 -97 -157 -121z" />
    <glyph glyph-name="w" unicode="w" 
d="M1364 569c-29.333 0 -59.001 -3.99902 -89.001 -11.999c-9.33301 -2.66699 -24.666 -6.66699 -45.999 -12c-38 -8.66699 -95 -31.667 -171 -69c-78 -38.667 -130.333 -70.334 -157 -95.001c-34.667 -22.667 -75.667 -59.667 -123 -111
c22 -8.66699 35.667 -26.334 41 -53.001c0 6.66699 -8 -22 -24 -86l41 4c66 64 175.333 134.667 328 212l139 71c32.667 18.667 57.167 39.334 73.5 62.001s24.5 41.667 24.5 57c0 21.333 -12.333 32 -37 32zM1548 807.001c142 0 215.668 -21.9971 221.001 -65.9971
c0 -90.667 -32.667 -164.334 -98 -221.001l-551 -466l-2726 -2286c-24 16 -36 35 -36 57s16.333 56 49 102c263.333 305.333 616.666 659.666 1060 1063c370 336 789.333 697.333 1258 1084c-71.333 0 -122 32.667 -152 98c0 67.333 19.333 112.333 58 135c24 8 50 12 78 12
c59.333 102.667 123.333 176.667 192 222c83.333 79.333 215 151.666 395 216.999c91.333 32.667 175.333 49 252 49zM5939 2241c3.33398 8.66699 27 49.001 71 121.001c32 52 48 97.667 48 137c0 20.667 -4 41 -12 61c-36.666 89.333 -185.666 163.333 -447 222
c-84 18.667 -170 30.667 -258 36c-76.666 10.667 -166.666 16 -270 16c-520.666 0 -1050.67 -169 -1590 -507c-236.667 -148 -487.667 -325.667 -753 -533c-78 -44 -130.667 -98.333 -158 -163c-9.33301 -22.667 -26.666 -97.334 -51.999 -224.001
c-16 -80 -59.333 -147.667 -130 -203c-62.667 -62.667 -131 -103.667 -205 -123c-51.333 -13.333 -92.333 -20 -123 -20c-70.667 0 -106 38.333 -106 115c32.667 65.333 62.667 111.666 90 138.999c92.667 70.667 139 141.667 139 213c0 15.333 -2.66699 27.666 -8 36.999
c-24.667 43.333 -76.667 65 -156 65c-101.333 0 -232.333 -36.667 -393 -110c-91.333 -41.333 -188.166 -110.833 -290.499 -208.5s-166.5 -189.5 -192.5 -275.5l4 -12c44 -0.666992 109.333 -6 196 -16c8.66699 -4 13 -9.66699 13 -17c0 -15.333 -15.333 -34.333 -46 -57
c-28 -20.667 -51 -33 -69 -37c-30 -10.667 -73.667 -16 -131 -16c-12.667 0 -31.834 0.666992 -57.501 2s-44.834 2 -57.501 2l-57 -62l-480 -524c-88.667 -101.333 -150 -177.666 -184 -228.999c-42 -62.667 -65 -110.667 -69 -144l-111 -8l-4 4h-4l-25 4l-53 37l-12 25
l-37 82c164.667 259.333 429.667 563.666 795 912.999l278 307c154 156.667 305 273.334 453 350.001c210 108 406 162 588 162c30.667 0 60.667 -4 90 -12c26 -1.33301 72 -6.66602 138 -15.999c57.333 -8.66699 104 -13 140 -13c566 594 1189.67 983 1871 1167
c306 82.667 595.666 124 869 124c199.334 0 391 -22.667 575 -68c243.334 -60 408 -149.333 494 -268c33.334 -46 50 -92.667 50 -140c0 -39.333 -12.334 -83 -37 -131c-68 -132 -176 -200 -324 -204z" />
    <glyph glyph-name="x" unicode="x" horiz-adv-x="1802" 
d="M758 352c10.667 -7.33301 16.002 -16.6641 16.002 -27.9971c0 -8 -3 -18 -9 -30c-6.66699 -14 -10.334 -23.333 -11.001 -28c21.333 -1.33301 48.666 -5.33301 81.999 -12l188 25c54.667 7.33301 119 30.666 193 69.999c63.333 33.333 108.333 72.666 135 117.999
c8 24.667 12 45 12 61c0 56.667 -73.667 84 -221 82c-50 -0.666992 -132 -18.334 -246 -53.001c-106 -50 -170 -99 -192 -147zM2494 2925c-98 -152 -254 -359.664 -468 -622.997l-547 -639c-41.333 -53.333 -99.666 -124 -174.999 -212l-445 -464
c-166 -182.667 -294 -353.334 -384 -512.001c-10.667 -29.333 -16 -55.333 -16 -78c0 -65.333 32.667 -98 98 -98c-2.66699 5.33301 -4 21.666 -4 48.999c0 28.667 4 56 12 82c46.667 151.333 229 285.333 547 402c143.333 52.667 267 79.667 371 81
c185.333 2.66699 278 -71 278 -221c0 -89.333 -36.667 -189 -110 -299c-62 -92.667 -162.167 -173.834 -300.5 -243.501s-279.833 -116.834 -424.5 -141.501c-63.333 -10.667 -129 -16 -197 -16c-200.667 0 -359 41 -475 123c-92.667 -104 -218.334 -156 -377.001 -156
c34 164 122.667 330.333 266 499c52 60.667 123.667 140 215 238c78.667 84.667 141 157 187 217l518 671c340 440.667 646.333 813.334 919 1118c164.667 184.667 331.334 358.667 500 522c30.667 0 52.667 -16.667 66 -50c8 -12 12 -28.333 12 -49
c0 -65.333 -22 -132 -66 -200z" />
    <glyph glyph-name="y" unicode="y" horiz-adv-x="1966" 
d="M2036 1217c58.667 13.333 111.667 20.002 159 20.002c62.667 0 102.334 -13.667 119 -41c-797.333 -704 -1533.33 -1490.67 -2208 -2360c-324 -416.667 -571 -775.667 -741 -1077c-14 -24.667 -28 -82.667 -42 -174c-26 -173.333 -92.667 -280.333 -200 -321
c-16 -8 -36.333 -12 -61 -12c-46 0 -87.333 11.667 -124 35c-42.667 26.667 -64 61.334 -64 104c0 22 5.33301 43.667 16 65c230.667 463.333 500.334 911.666 809.001 1345c372 524 766 971.333 1182 1342c-180.667 -15.333 -437.334 -64.333 -770.001 -147
c-100 0 -157.333 41 -172 123c0 48 16.333 104 49 168c142.667 142.667 243 254 301 334c91.333 127.333 152 263 182 407c70 122.667 153.333 184 250 184c11.333 0 30.333 -2.66699 57 -8c78.667 -48.667 129.334 -114 152.001 -196c-4 -107.333 -72.333 -256 -205 -446
c-71.333 -101.333 -119 -183.666 -143 -246.999c21.333 -5.33301 54 -8 98 -8c134.667 0 254.667 43.667 360 131c71.333 59.333 167 155.333 287 288c71.333 79.333 117.666 129.666 138.999 150.999c200.667 203.333 390.667 316.666 570 339.999z" />
    <glyph glyph-name="z" unicode="z" horiz-adv-x="1843" 
d="M684 1532c40 -64 127.334 -98 262.001 -102c73.333 -2 146.333 15.667 219 53c58 30 134.667 80.333 230 151c102.667 76 178.334 128 227.001 156l436 310c270 194 471.333 400.667 604 620c16.667 40 25 72.667 25 98c0 60 -56 90 -168 90h-111
c-74.667 0 -219.334 -26 -434.001 -78c-317.333 -114.667 -578 -245 -782 -391c-236.667 -169.333 -411.334 -372 -524.001 -608c-22 -70.667 -33 -122.667 -33 -156c0 -55.333 16.333 -103 49 -143zM49.001 184c0 102 52.001 225.001 156.001 369.001
c96.667 134 238.667 291.333 426 472l221 216c-49.333 -5.33301 -86.333 -8 -111 -8c-234.667 0 -352 121.333 -352 364c0 27.333 4 61.666 12 102.999c27.333 143.333 77 270.333 149 381c73.333 113.333 158 213.666 254 301c114 102.667 229.667 196 347 280
c220 156.667 429 271.334 627 344c277.333 101.333 536.666 152 777.999 152c224.667 0 386.667 -49.667 486 -149c44.667 -44.667 67 -92 67 -142c0 -28.667 -8.33301 -57.334 -25 -86c-8 -94 -291 -355 -849 -783c-488 -373.333 -732 -578 -732 -614
c0.666992 -5.33301 3.33398 -9.33301 8.00098 -12c105.333 -55.333 158.666 -131.666 159.999 -228.999c2 -136.667 -66.333 -277.334 -205 -422.001c-242 -252 -449.333 -432.333 -622 -541c-186 -118 -361 -176.667 -525 -176c-123.333 0 -203.333 25 -240 75
c-20 26 -30 61 -30 105zM393.002 369.001c0 -41.333 23.332 -61.998 69.999 -61.998c66 0 163.333 33.333 292 100c145.333 74.667 251.333 139.667 318 195c60.667 50 133.334 131 218.001 243c73.333 97.333 110 174.666 110 231.999c0 48 -32.667 74 -98 78
c-171.333 -47.333 -349 -137.333 -533 -270l-127 -117c-87.333 -80 -152.333 -160.333 -195 -241c-24.667 -46.667 -43 -99.334 -55 -158.001z" />
    <glyph glyph-name="braceleft" unicode="{" horiz-adv-x="0" 
 />
    <glyph glyph-name="asciitilde" unicode="~" horiz-adv-x="3277" 
d="M1135 2560c130.667 50.667 234.667 118.667 312 204c66 73.333 129.667 180.666 191 322c53.333 124 98 206 134 246c60 68.667 142.333 103.667 247 105c158.667 2 238 -54 238 -168c0 -10.667 -2.66699 -32.667 -8 -66c-69.333 -161.333 -203 -298.333 -401 -411
c-75.333 -43.333 -174 -94.666 -296 -154c-138 -52 -277 -78 -417 -78zM2363 2560c264 178.667 445.667 376.667 545 594c45.333 101.333 86 167.666 122 199c42.667 38 115.334 66 218 84c158.667 0 238 -56 238 -168c0 -10.667 -2.66699 -32.667 -8 -66
c-69.333 -161.333 -203 -298.333 -401 -411c-75.333 -43.333 -174 -94.666 -296 -154c-138 -52 -277.333 -78 -418 -78z" />
    <glyph glyph-name=".null" horiz-adv-x="0" 
 />
    <glyph glyph-name="nonmarkingreturn" 
 />
    <glyph glyph-name="glyph73" horiz-adv-x="0" 
 />
    <glyph glyph-name="glyph74" horiz-adv-x="0" 
 />
  </font>
</defs>
</svg>
